<svg width="71" height="71" viewBox="0 0 71 71" fill="none" xmlns="http://www.w3.org/2000/svg">
<circle cx="35.1273" cy="35.5946" r="35.1273" fill="white"/>
<g clip-path="url(#clip0)">
<mask id="path-2-outside-1" maskUnits="userSpaceOnUse" x="13.8936" y="14.3611" width="42" height="42" fill="black">
<rect fill="white" x="13.8936" y="14.3611" width="42" height="42"/>
<path d="M35.127 48.2182C34.7996 48.2182 34.5343 48.4835 34.5343 48.811V53.0261C34.5343 53.3535 34.7996 53.6189 35.127 53.6189C35.4545 53.6189 35.7198 53.3535 35.7198 53.0261V48.811C35.7198 48.4835 35.4545 48.2182 35.127 48.2182ZM35.127 45.847C34.7997 45.847 34.5343 46.1124 34.5343 46.4398C34.5343 46.7672 34.7997 47.0326 35.127 47.0326C35.4544 47.0326 35.7198 46.7672 35.7198 46.4398C35.7198 46.1124 35.4544 45.847 35.127 45.847ZM35.127 43.6381C31.7663 43.6381 29.0322 46.3722 29.0322 49.7329C29.0322 53.0935 31.7663 55.8278 35.127 55.8278C38.4877 55.8278 41.2218 53.0936 41.2218 49.7329C41.2218 46.3723 38.4877 43.6381 35.127 43.6381ZM35.127 54.6422C32.42 54.6422 30.2178 52.4399 30.2178 49.7329C30.2178 47.0259 32.42 44.8237 35.127 44.8237C37.834 44.8237 40.0363 47.0259 40.0363 49.7329C40.0363 52.4399 37.834 54.6422 35.127 54.6422ZM53.977 36.1477H43.1176V34.5148H46.8669C47.8475 34.5148 48.6453 33.7171 48.6453 32.7365V25.4114C48.6453 24.4308 47.8475 23.6331 46.8669 23.6331H35.8121C34.8316 23.6331 34.0338 24.4308 34.0338 25.4114V27.967L31.5001 27.1949C30.8452 27.0229 30.697 26.3062 30.7593 25.7181C31.6396 24.9407 32.1964 23.805 32.1964 22.541V18.0917C32.1964 16.5861 30.9715 15.3611 29.4657 15.3611H26.448C24.9424 15.3611 23.7174 16.5861 23.7174 18.0917V22.541C23.7174 23.8378 24.3033 24.9998 25.2236 25.778C25.2871 26.3543 25.1168 27.0384 24.4831 27.2068L21.133 28.2287C19.4928 28.7285 18.3909 30.2163 18.3909 31.9311V34.3694C18.3909 34.6967 18.6562 34.9622 18.9837 34.9622C19.3111 34.9622 19.5765 34.6967 19.5765 34.3694V31.9311C19.5765 30.7415 20.3408 29.7094 21.4787 29.3627L22.7623 28.9712L25.2166 31.0712C25.4309 31.2546 25.696 31.3445 25.9602 31.3445C26.2782 31.3445 26.5949 31.2142 26.8198 30.9601L27.3641 30.3453V36.1477H23.5329V35.1209C23.5329 34.7936 23.2675 34.5282 22.9401 34.5282C22.6126 34.5282 22.3473 34.7936 22.3473 35.1209V36.1477H16.2767C15.5141 36.1477 14.8936 36.7682 14.8936 37.5308V39.5067C14.8936 40.2694 15.5141 40.8899 16.2767 40.8899H17.8576V55.235C17.8576 55.5624 18.1229 55.8278 18.4504 55.8278C18.7778 55.8278 19.0431 55.5624 19.0431 55.235V40.8899H53.977C54.7397 40.8899 55.3602 40.2694 55.3602 39.5067V37.5308C55.3602 36.7682 54.7397 36.1477 53.977 36.1477ZM35.2193 28.7666C35.2193 28.7649 35.2193 28.7631 35.2193 28.7614V25.4114C35.2193 25.0845 35.4852 24.8186 35.8121 24.8186H46.8669C47.1938 24.8186 47.4597 25.0845 47.4597 25.4114V32.7365C47.4597 33.0634 47.1938 33.3293 46.8669 33.3293H43.1176V31.9983C43.1176 31.0177 42.3198 30.22 41.3393 30.22C40.3588 30.22 39.561 31.0177 39.561 31.9983V33.3293H35.8121C35.4852 33.3293 35.2193 33.0634 35.2193 32.7365V28.7666ZM41.9321 33.925V36.1477H40.7465V31.9983C40.7465 31.6714 41.0124 31.4055 41.3393 31.4055C41.6662 31.4055 41.9321 31.6714 41.9321 31.9983V33.919C41.9321 33.92 41.9319 33.9209 41.9319 33.922C41.9319 33.9231 41.9321 33.924 41.9321 33.925ZM39.561 34.5148V36.1477H37.6363V34.5148H39.561ZM34.0338 29.2063V32.7365C34.0338 33.7171 34.8316 34.5148 35.8121 34.5148H36.4507V36.1477H33.5664V35.1209C33.5664 34.7936 33.3011 34.5282 32.9736 34.5282C32.6462 34.5282 32.3808 34.7936 32.3808 35.1209V36.1477H28.5496V30.3177L29.1456 30.9752C29.3727 31.2256 29.6824 31.3535 29.9941 31.3535C30.2568 31.3535 30.521 31.2626 30.7381 31.0777L33.2235 28.9594L34.0338 29.2063ZM31.1547 28.3289L31.8772 28.5491L29.9982 30.1505L28.8856 28.9232L30.4781 27.9876C30.6815 28.1382 30.9096 28.2543 31.1547 28.3289ZM24.903 18.0917C24.903 17.2397 25.5962 16.5467 26.4481 16.5467H29.4658C30.3177 16.5467 31.0109 17.2398 31.0109 18.0917V19.7026C29.8746 18.9815 28.4988 18.8078 27.2151 19.2308L24.9031 19.9924V18.0917H24.903ZM24.903 22.541V21.2406L27.5859 20.3568C28.5588 20.0363 29.6039 20.1805 30.4535 20.7524L31.0108 21.1274V22.541C31.0108 24.225 29.6408 25.5949 27.9568 25.5949C26.2729 25.5949 24.903 24.2249 24.903 22.541ZM25.9579 30.1451L24.1066 28.5612L24.8287 28.3409C25.0745 28.266 25.3023 28.15 25.505 28.0002L27.0404 28.9224L25.9579 30.1451ZM26.2381 27.0576C26.3144 26.8729 26.3658 26.6785 26.3904 26.4792C26.8754 26.6727 27.4037 26.7804 27.9568 26.7804C28.5356 26.7804 29.0875 26.6635 29.5905 26.4526C29.6143 26.6566 29.6662 26.8553 29.7439 27.044L27.9602 28.0919L26.2381 27.0576ZM54.1746 39.5067C54.1746 39.6157 54.086 39.7043 53.977 39.7043H16.2767C16.1677 39.7043 16.0791 39.6157 16.0791 39.5067V37.5308C16.0791 37.4218 16.1677 37.3332 16.2767 37.3332H53.977C54.086 37.3332 54.1746 37.4218 54.1746 37.5308V39.5067ZM51.8037 42.3731C51.4763 42.3731 51.2109 42.6384 51.2109 42.9659V55.235C51.2109 55.5624 51.4763 55.8278 51.8037 55.8278C52.1312 55.8278 52.3965 55.5624 52.3965 55.235V42.9659C52.3965 42.6384 52.1312 42.3731 51.8037 42.3731Z"/>
</mask>
<path d="M35.127 48.2182C34.7996 48.2182 34.5343 48.4835 34.5343 48.811V53.0261C34.5343 53.3535 34.7996 53.6189 35.127 53.6189C35.4545 53.6189 35.7198 53.3535 35.7198 53.0261V48.811C35.7198 48.4835 35.4545 48.2182 35.127 48.2182ZM35.127 45.847C34.7997 45.847 34.5343 46.1124 34.5343 46.4398C34.5343 46.7672 34.7997 47.0326 35.127 47.0326C35.4544 47.0326 35.7198 46.7672 35.7198 46.4398C35.7198 46.1124 35.4544 45.847 35.127 45.847ZM35.127 43.6381C31.7663 43.6381 29.0322 46.3722 29.0322 49.7329C29.0322 53.0935 31.7663 55.8278 35.127 55.8278C38.4877 55.8278 41.2218 53.0936 41.2218 49.7329C41.2218 46.3723 38.4877 43.6381 35.127 43.6381ZM35.127 54.6422C32.42 54.6422 30.2178 52.4399 30.2178 49.7329C30.2178 47.0259 32.42 44.8237 35.127 44.8237C37.834 44.8237 40.0363 47.0259 40.0363 49.7329C40.0363 52.4399 37.834 54.6422 35.127 54.6422ZM53.977 36.1477H43.1176V34.5148H46.8669C47.8475 34.5148 48.6453 33.7171 48.6453 32.7365V25.4114C48.6453 24.4308 47.8475 23.6331 46.8669 23.6331H35.8121C34.8316 23.6331 34.0338 24.4308 34.0338 25.4114V27.967L31.5001 27.1949C30.8452 27.0229 30.697 26.3062 30.7593 25.7181C31.6396 24.9407 32.1964 23.805 32.1964 22.541V18.0917C32.1964 16.5861 30.9715 15.3611 29.4657 15.3611H26.448C24.9424 15.3611 23.7174 16.5861 23.7174 18.0917V22.541C23.7174 23.8378 24.3033 24.9998 25.2236 25.778C25.2871 26.3543 25.1168 27.0384 24.4831 27.2068L21.133 28.2287C19.4928 28.7285 18.3909 30.2163 18.3909 31.9311V34.3694C18.3909 34.6967 18.6562 34.9622 18.9837 34.9622C19.3111 34.9622 19.5765 34.6967 19.5765 34.3694V31.9311C19.5765 30.7415 20.3408 29.7094 21.4787 29.3627L22.7623 28.9712L25.2166 31.0712C25.4309 31.2546 25.696 31.3445 25.9602 31.3445C26.2782 31.3445 26.5949 31.2142 26.8198 30.9601L27.3641 30.3453V36.1477H23.5329V35.1209C23.5329 34.7936 23.2675 34.5282 22.9401 34.5282C22.6126 34.5282 22.3473 34.7936 22.3473 35.1209V36.1477H16.2767C15.5141 36.1477 14.8936 36.7682 14.8936 37.5308V39.5067C14.8936 40.2694 15.5141 40.8899 16.2767 40.8899H17.8576V55.235C17.8576 55.5624 18.1229 55.8278 18.4504 55.8278C18.7778 55.8278 19.0431 55.5624 19.0431 55.235V40.8899H53.977C54.7397 40.8899 55.3602 40.2694 55.3602 39.5067V37.5308C55.3602 36.7682 54.7397 36.1477 53.977 36.1477ZM35.2193 28.7666C35.2193 28.7649 35.2193 28.7631 35.2193 28.7614V25.4114C35.2193 25.0845 35.4852 24.8186 35.8121 24.8186H46.8669C47.1938 24.8186 47.4597 25.0845 47.4597 25.4114V32.7365C47.4597 33.0634 47.1938 33.3293 46.8669 33.3293H43.1176V31.9983C43.1176 31.0177 42.3198 30.22 41.3393 30.22C40.3588 30.22 39.561 31.0177 39.561 31.9983V33.3293H35.8121C35.4852 33.3293 35.2193 33.0634 35.2193 32.7365V28.7666ZM41.9321 33.925V36.1477H40.7465V31.9983C40.7465 31.6714 41.0124 31.4055 41.3393 31.4055C41.6662 31.4055 41.9321 31.6714 41.9321 31.9983V33.919C41.9321 33.92 41.9319 33.9209 41.9319 33.922C41.9319 33.9231 41.9321 33.924 41.9321 33.925ZM39.561 34.5148V36.1477H37.6363V34.5148H39.561ZM34.0338 29.2063V32.7365C34.0338 33.7171 34.8316 34.5148 35.8121 34.5148H36.4507V36.1477H33.5664V35.1209C33.5664 34.7936 33.3011 34.5282 32.9736 34.5282C32.6462 34.5282 32.3808 34.7936 32.3808 35.1209V36.1477H28.5496V30.3177L29.1456 30.9752C29.3727 31.2256 29.6824 31.3535 29.9941 31.3535C30.2568 31.3535 30.521 31.2626 30.7381 31.0777L33.2235 28.9594L34.0338 29.2063ZM31.1547 28.3289L31.8772 28.5491L29.9982 30.1505L28.8856 28.9232L30.4781 27.9876C30.6815 28.1382 30.9096 28.2543 31.1547 28.3289ZM24.903 18.0917C24.903 17.2397 25.5962 16.5467 26.4481 16.5467H29.4658C30.3177 16.5467 31.0109 17.2398 31.0109 18.0917V19.7026C29.8746 18.9815 28.4988 18.8078 27.2151 19.2308L24.9031 19.9924V18.0917H24.903ZM24.903 22.541V21.2406L27.5859 20.3568C28.5588 20.0363 29.6039 20.1805 30.4535 20.7524L31.0108 21.1274V22.541C31.0108 24.225 29.6408 25.5949 27.9568 25.5949C26.2729 25.5949 24.903 24.2249 24.903 22.541ZM25.9579 30.1451L24.1066 28.5612L24.8287 28.3409C25.0745 28.266 25.3023 28.15 25.505 28.0002L27.0404 28.9224L25.9579 30.1451ZM26.2381 27.0576C26.3144 26.8729 26.3658 26.6785 26.3904 26.4792C26.8754 26.6727 27.4037 26.7804 27.9568 26.7804C28.5356 26.7804 29.0875 26.6635 29.5905 26.4526C29.6143 26.6566 29.6662 26.8553 29.7439 27.044L27.9602 28.0919L26.2381 27.0576ZM54.1746 39.5067C54.1746 39.6157 54.086 39.7043 53.977 39.7043H16.2767C16.1677 39.7043 16.0791 39.6157 16.0791 39.5067V37.5308C16.0791 37.4218 16.1677 37.3332 16.2767 37.3332H53.977C54.086 37.3332 54.1746 37.4218 54.1746 37.5308V39.5067ZM51.8037 42.3731C51.4763 42.3731 51.2109 42.6384 51.2109 42.9659V55.235C51.2109 55.5624 51.4763 55.8278 51.8037 55.8278C52.1312 55.8278 52.3965 55.5624 52.3965 55.235V42.9659C52.3965 42.6384 52.1312 42.3731 51.8037 42.3731Z" fill="#FF9900"/>
<path d="M35.127 48.2182C34.7996 48.2182 34.5343 48.4835 34.5343 48.811V53.0261C34.5343 53.3535 34.7996 53.6189 35.127 53.6189C35.4545 53.6189 35.7198 53.3535 35.7198 53.0261V48.811C35.7198 48.4835 35.4545 48.2182 35.127 48.2182ZM35.127 45.847C34.7997 45.847 34.5343 46.1124 34.5343 46.4398C34.5343 46.7672 34.7997 47.0326 35.127 47.0326C35.4544 47.0326 35.7198 46.7672 35.7198 46.4398C35.7198 46.1124 35.4544 45.847 35.127 45.847ZM35.127 43.6381C31.7663 43.6381 29.0322 46.3722 29.0322 49.7329C29.0322 53.0935 31.7663 55.8278 35.127 55.8278C38.4877 55.8278 41.2218 53.0936 41.2218 49.7329C41.2218 46.3723 38.4877 43.6381 35.127 43.6381ZM35.127 54.6422C32.42 54.6422 30.2178 52.4399 30.2178 49.7329C30.2178 47.0259 32.42 44.8237 35.127 44.8237C37.834 44.8237 40.0363 47.0259 40.0363 49.7329C40.0363 52.4399 37.834 54.6422 35.127 54.6422ZM53.977 36.1477H43.1176V34.5148H46.8669C47.8475 34.5148 48.6453 33.7171 48.6453 32.7365V25.4114C48.6453 24.4308 47.8475 23.6331 46.8669 23.6331H35.8121C34.8316 23.6331 34.0338 24.4308 34.0338 25.4114V27.967L31.5001 27.1949C30.8452 27.0229 30.697 26.3062 30.7593 25.7181C31.6396 24.9407 32.1964 23.805 32.1964 22.541V18.0917C32.1964 16.5861 30.9715 15.3611 29.4657 15.3611H26.448C24.9424 15.3611 23.7174 16.5861 23.7174 18.0917V22.541C23.7174 23.8378 24.3033 24.9998 25.2236 25.778C25.2871 26.3543 25.1168 27.0384 24.4831 27.2068L21.133 28.2287C19.4928 28.7285 18.3909 30.2163 18.3909 31.9311V34.3694C18.3909 34.6967 18.6562 34.9622 18.9837 34.9622C19.3111 34.9622 19.5765 34.6967 19.5765 34.3694V31.9311C19.5765 30.7415 20.3408 29.7094 21.4787 29.3627L22.7623 28.9712L25.2166 31.0712C25.4309 31.2546 25.696 31.3445 25.9602 31.3445C26.2782 31.3445 26.5949 31.2142 26.8198 30.9601L27.3641 30.3453V36.1477H23.5329V35.1209C23.5329 34.7936 23.2675 34.5282 22.9401 34.5282C22.6126 34.5282 22.3473 34.7936 22.3473 35.1209V36.1477H16.2767C15.5141 36.1477 14.8936 36.7682 14.8936 37.5308V39.5067C14.8936 40.2694 15.5141 40.8899 16.2767 40.8899H17.8576V55.235C17.8576 55.5624 18.1229 55.8278 18.4504 55.8278C18.7778 55.8278 19.0431 55.5624 19.0431 55.235V40.8899H53.977C54.7397 40.8899 55.3602 40.2694 55.3602 39.5067V37.5308C55.3602 36.7682 54.7397 36.1477 53.977 36.1477ZM35.2193 28.7666C35.2193 28.7649 35.2193 28.7631 35.2193 28.7614V25.4114C35.2193 25.0845 35.4852 24.8186 35.8121 24.8186H46.8669C47.1938 24.8186 47.4597 25.0845 47.4597 25.4114V32.7365C47.4597 33.0634 47.1938 33.3293 46.8669 33.3293H43.1176V31.9983C43.1176 31.0177 42.3198 30.22 41.3393 30.22C40.3588 30.22 39.561 31.0177 39.561 31.9983V33.3293H35.8121C35.4852 33.3293 35.2193 33.0634 35.2193 32.7365V28.7666ZM41.9321 33.925V36.1477H40.7465V31.9983C40.7465 31.6714 41.0124 31.4055 41.3393 31.4055C41.6662 31.4055 41.9321 31.6714 41.9321 31.9983V33.919C41.9321 33.92 41.9319 33.9209 41.9319 33.922C41.9319 33.9231 41.9321 33.924 41.9321 33.925ZM39.561 34.5148V36.1477H37.6363V34.5148H39.561ZM34.0338 29.2063V32.7365C34.0338 33.7171 34.8316 34.5148 35.8121 34.5148H36.4507V36.1477H33.5664V35.1209C33.5664 34.7936 33.3011 34.5282 32.9736 34.5282C32.6462 34.5282 32.3808 34.7936 32.3808 35.1209V36.1477H28.5496V30.3177L29.1456 30.9752C29.3727 31.2256 29.6824 31.3535 29.9941 31.3535C30.2568 31.3535 30.521 31.2626 30.7381 31.0777L33.2235 28.9594L34.0338 29.2063ZM31.1547 28.3289L31.8772 28.5491L29.9982 30.1505L28.8856 28.9232L30.4781 27.9876C30.6815 28.1382 30.9096 28.2543 31.1547 28.3289ZM24.903 18.0917C24.903 17.2397 25.5962 16.5467 26.4481 16.5467H29.4658C30.3177 16.5467 31.0109 17.2398 31.0109 18.0917V19.7026C29.8746 18.9815 28.4988 18.8078 27.2151 19.2308L24.9031 19.9924V18.0917H24.903ZM24.903 22.541V21.2406L27.5859 20.3568C28.5588 20.0363 29.6039 20.1805 30.4535 20.7524L31.0108 21.1274V22.541C31.0108 24.225 29.6408 25.5949 27.9568 25.5949C26.2729 25.5949 24.903 24.2249 24.903 22.541ZM25.9579 30.1451L24.1066 28.5612L24.8287 28.3409C25.0745 28.266 25.3023 28.15 25.505 28.0002L27.0404 28.9224L25.9579 30.1451ZM26.2381 27.0576C26.3144 26.8729 26.3658 26.6785 26.3904 26.4792C26.8754 26.6727 27.4037 26.7804 27.9568 26.7804C28.5356 26.7804 29.0875 26.6635 29.5905 26.4526C29.6143 26.6566 29.6662 26.8553 29.7439 27.044L27.9602 28.0919L26.2381 27.0576ZM54.1746 39.5067C54.1746 39.6157 54.086 39.7043 53.977 39.7043H16.2767C16.1677 39.7043 16.0791 39.6157 16.0791 39.5067V37.5308C16.0791 37.4218 16.1677 37.3332 16.2767 37.3332H53.977C54.086 37.3332 54.1746 37.4218 54.1746 37.5308V39.5067ZM51.8037 42.3731C51.4763 42.3731 51.2109 42.6384 51.2109 42.9659V55.235C51.2109 55.5624 51.4763 55.8278 51.8037 55.8278C52.1312 55.8278 52.3965 55.5624 52.3965 55.235V42.9659C52.3965 42.6384 52.1312 42.3731 51.8037 42.3731Z" stroke="#FF9900" stroke-width="0.702546" mask="url(#path-2-outside-1)"/>
</g>
<defs>
<clipPath id="clip0">
<rect width="42.1527" height="42.1527" fill="white" transform="translate(14.0508 14.5181)"/>
</clipPath>
</defs>
</svg>
