<svg width="71" height="71" viewBox="0 0 71 71" fill="none" xmlns="http://www.w3.org/2000/svg">
<circle cx="35.1273" cy="35.5946" r="35.1273" fill="white"/>
<g clip-path="url(#clip0)">
<path d="M38.7821 25.5071L41.3858 27.4334C41.6789 27.6502 41.5308 28.1299 41.1602 28.1322L40.3431 28.1372C40.3423 28.1372 40.3416 28.1372 40.3407 28.1372C40.1306 28.1372 39.959 27.9671 39.9576 27.7569C39.9538 27.1421 39.4527 26.6455 38.8376 26.6505C38.2228 26.6543 37.7274 27.1558 37.7311 27.7706C37.7385 28.9585 38.5429 29.9578 39.6328 30.2655V30.3194C39.6328 30.9342 40.1313 31.4326 40.7461 31.4326C41.3608 31.4326 41.8593 30.9342 41.8593 30.3194V30.2632C42.293 30.1429 42.6901 29.9117 43.0149 29.5827C43.5048 29.0865 43.7722 28.4292 43.7674 27.7302V27.7232C43.7618 26.9066 43.3665 26.1291 42.71 25.6434L40.1063 23.7172C39.8106 23.4984 39.9659 23.027 40.3343 23.027H41.1526C41.3639 23.027 41.5358 23.1987 41.5358 23.4097C41.5358 24.0245 42.0343 24.523 42.649 24.523C43.2638 24.523 43.7622 24.0245 43.7622 23.4097C43.7622 22.2159 42.9558 21.2074 41.8592 20.8985V20.8449C41.8592 20.2301 41.3607 19.7316 40.746 19.7316C40.1312 19.7316 39.6328 20.2301 39.6328 20.8449V20.897C38.5336 21.2042 37.7246 22.2139 37.7246 23.4097C37.7247 24.2331 38.12 25.0172 38.7821 25.5071Z" fill="#F2994A"/>
<path d="M40.7465 34.9825C45.9313 34.9825 50.1493 30.7655 50.1493 25.5821C50.1493 20.3986 45.9312 16.1818 40.7465 16.1818C35.5618 16.1818 31.3438 20.3987 31.3438 25.5822C31.3438 30.7656 35.5618 34.9825 40.7465 34.9825ZM40.7465 18.4083C44.7036 18.4083 47.9228 21.6265 47.9228 25.5822C47.9228 29.5378 44.7036 32.756 40.7465 32.756C36.7896 32.756 33.5702 29.5378 33.5702 25.5822C33.5702 21.6265 36.7896 18.4083 40.7465 18.4083Z" fill="#F2994A"/>
<path d="M53.3497 37.4964C52.1456 35.9463 49.9719 35.6547 48.4072 36.7402L44.1715 39.5739C43.5829 38.4779 42.4255 37.7309 41.0966 37.7309H38.0751C36.5499 36.3004 34.5137 35.4882 32.4135 35.4882C30.8371 35.4882 29.3037 35.9335 27.9791 36.776C26.7856 37.5352 25.8093 38.5839 25.1385 39.8221L24.5713 40.1689L24.4243 39.7391C24.2254 39.1574 23.5928 38.847 23.0111 39.0457L16.8688 41.1446C16.2873 41.3432 15.9765 41.9764 16.1754 42.5582L19.8917 53.4284C20.0907 54.0105 20.7236 54.3204 21.305 54.1218L27.4473 52.0231C27.9958 51.8356 28.3552 51.2369 28.1284 50.5735L37.8748 50.2718C40.5291 50.2682 43.0745 49.4531 45.2367 47.9141L52.5867 42.686C54.2718 41.4866 54.6196 39.1303 53.3497 37.4964ZM21.6384 51.6549L18.6423 42.8915L22.6777 41.5127C23.1124 42.7842 25.2251 48.9637 25.6737 50.2761L21.6384 51.6549ZM51.296 40.8717L43.9459 46.0999C42.1579 47.3725 40.0524 48.0451 37.8572 48.0451C37.8457 48.0451 37.8342 48.0453 37.8227 48.0456L27.3747 48.369L25.3092 42.3274L26.5646 41.5597C26.5649 41.5595 26.5652 41.5593 26.5655 41.5591C26.7503 41.446 26.8948 41.2799 26.9829 41.1002C28.0075 39.012 30.0884 37.7146 32.4135 37.7146C34.0936 37.7146 35.6541 38.3873 36.8076 39.6086C37.02 39.8336 37.3252 39.9572 37.6169 39.9572H41.0966C41.7922 39.9572 42.358 40.5228 42.358 41.218C42.358 41.9059 41.8016 42.4787 41.0966 42.4787H34.8155C34.2007 42.4787 33.7023 42.9772 33.7023 43.592C33.7023 44.2068 34.2008 44.7053 34.8155 44.7053H41.0966C42.029 44.7053 42.905 44.3422 43.5625 43.6837C44.0225 43.2239 44.3377 42.6582 44.4865 42.0419L49.6537 38.585C49.6599 38.5808 49.666 38.5766 49.6722 38.5723C50.2815 38.1466 51.1256 38.2625 51.5916 38.8624C52.083 39.4947 51.9486 40.4072 51.296 40.8717Z" fill="#F2994A"/>
</g>
<defs>
<clipPath id="clip0">
<rect width="38" height="38" fill="white" transform="translate(16.1152 16.1818)"/>
</clipPath>
</defs>
</svg>
