<svg width="71" height="71" viewBox="0 0 71 71" fill="none" xmlns="http://www.w3.org/2000/svg">
<circle cx="35.1273" cy="35.5946" r="35.1273" fill="white"/>
<g clip-path="url(#clip0)">
<path d="M43.1621 33.3929C43.1621 34.0078 42.6637 34.5061 42.0488 34.5061C41.4342 34.5061 40.9355 34.0078 40.9355 33.3929C40.9355 32.7782 41.4342 32.2796 42.0488 32.2796C42.6637 32.2796 43.1621 32.7782 43.1621 33.3929Z" fill="#F2994A"/>
<path d="M42.0481 21.5477C39.7882 21.5477 37.9551 23.3765 37.9551 25.6407V25.6422C37.9551 26.2568 38.4534 26.7549 39.0684 26.7549C39.6833 26.7549 40.1816 26.2557 40.1816 25.6407C40.1816 24.6115 41.014 23.7743 42.0496 23.7743C43.0794 23.7743 43.9172 24.6121 43.9172 25.6422C43.9172 26.672 43.0794 27.5098 42.0496 27.5098C41.4347 27.5098 40.9363 28.0085 40.9363 28.6231V29.8155C40.9363 30.4305 41.4347 30.9288 42.0496 30.9288C42.6642 30.9288 43.1629 30.4305 43.1629 29.8155V29.5827C44.8812 29.0966 46.1438 27.5139 46.1438 25.6422C46.1438 23.3843 44.3072 21.5477 42.0481 21.5477Z" fill="#F2994A"/>
<path d="M26.5774 44.5935C27.9609 43.5162 28.8532 41.8364 28.8532 39.9514C28.8532 36.7075 26.2138 34.0684 22.97 34.0684C19.7261 34.0684 17.087 36.7075 17.087 39.9514C17.087 41.8364 17.9793 43.5162 19.3625 44.5935C17.4102 45.7549 15.8945 47.9484 15.8945 50.6835V53.0684C15.8945 53.6833 16.3929 54.1816 17.0078 54.1816H28.9324C29.547 54.1816 30.0457 53.6833 30.0457 53.0684V50.6835C30.0457 47.949 28.5303 45.7552 26.5774 44.5935ZM19.3135 39.9514C19.3135 37.9353 20.9539 36.2949 22.9702 36.2949C24.9863 36.2949 26.6267 37.9353 26.6267 39.9514C26.6267 41.9677 24.9863 43.6081 22.9702 43.6081C20.9539 43.6081 19.3135 41.9677 19.3135 39.9514ZM27.8191 51.9551H18.1211V50.6835C18.1211 48.0052 20.2879 45.8346 22.97 45.8346C25.6482 45.8346 27.8188 48.0015 27.8188 50.6835V51.9551H27.8191Z" fill="#F2994A"/>
<path d="M49.2041 16.1816H34.8947C32.304 16.1816 30.2041 18.2777 30.2041 20.8722V42.3362C30.2041 43.2468 31.2484 43.7794 31.9854 43.2268L36.4582 39.8722H49.2041C51.7948 39.8722 53.8947 37.7761 53.8947 35.1816V20.8722C53.8947 18.2815 51.7986 16.1816 49.2041 16.1816V16.1816ZM51.6681 35.1816C51.6681 36.5437 50.5667 37.6456 49.2041 37.6456H36.0871C35.8462 37.6456 35.6119 37.7239 35.4191 37.8683L32.4307 40.1096V20.8722C32.4307 19.5102 33.5321 18.4082 34.8947 18.4082H49.2041C50.5661 18.4082 51.6681 19.5096 51.6681 20.8722V35.1816Z" fill="#F2994A"/>
</g>
<defs>
<clipPath id="clip0">
<rect width="38" height="38" fill="white" transform="translate(15.8945 16.1816)"/>
</clipPath>
</defs>
</svg>
