<svg width="84" height="78" viewBox="0 0 84 78" fill="none" xmlns="http://www.w3.org/2000/svg">
<path d="M67.835 12.6136L45.7619 6.61645C37.7554 4.44114 31.8376 7.92811 29.6852 16.0732L22.3953 43.6596C20.2077 51.9382 23.6414 57.8514 31.6479 60.0267L53.721 66.0239C61.8565 68.2342 67.6144 64.8183 69.8021 56.5397L77.092 28.9533C79.2443 20.8082 75.9705 14.8239 67.835 12.6136Z" fill="url(#paint0_linear_112_438)"/>
<g opacity="0.5" filter="url(#filter0_f_112_438)">
<path d="M62.1126 20.1092L47.0189 16.0084C41.5441 14.5209 37.4975 16.9053 36.0257 22.4749L31.0408 41.3386C29.5449 46.9995 31.8929 51.043 37.3678 52.5305L52.4614 56.6313C58.0245 58.1428 61.9618 55.8069 63.4577 50.146L68.4425 31.2824C69.9143 25.7127 67.6757 21.6207 62.1126 20.1092Z" fill="#26AB5B"/>
</g>
<g filter="url(#filter1_b_112_438)">
<mask id="path-3-outside-1_112_438" maskUnits="userSpaceOnUse" x="-0.5" y="11.4132" width="65" height="66" fill="black">
<rect fill="white" x="-0.5" y="11.4132" width="65" height="66"/>
<path fill-rule="evenodd" clip-rule="evenodd" d="M0.500147 44.0599V57.0384C0.499537 58.4471 0.611477 59.8536 0.834873 61.2441C1.1862 63.7014 2.02087 66.0625 3.28953 68.1877C3.86745 69.2135 4.57029 70.1617 5.38157 71.0104C9.1104 74.4682 14.0542 76.268 19.1053 76.0064H44.6003C49.6434 76.2699 54.5792 74.4694 58.2962 71.0104C59.1173 70.1634 59.8295 69.215 60.4161 68.1877C61.6923 66.061 62.5452 63.7021 62.9266 61.2441C63.1269 59.8513 63.2294 58.4459 63.2334 57.0384V40.3285C63.3288 37.1292 62.8661 33.9378 61.8666 30.901C61.3587 29.4234 60.583 28.0546 59.5793 26.8646C59.2638 26.4889 58.9186 26.1396 58.5472 25.8203C55.3227 23.2487 51.2599 21.9992 47.1666 22.3202H37.7627C35.536 22.2765 33.4356 21.2476 32.02 19.4989L28.9796 15.2368C27.5465 13.4204 25.3628 12.3781 23.0661 12.4141H16.539C4.82355 12.4141 0.500003 19.386 0.500003 31.241V44.0557C0.499988 44.0571 0.500036 44.0585 0.500147 44.0599Z"/>
</mask>
<path fill-rule="evenodd" clip-rule="evenodd" d="M0.500147 44.0599V57.0384C0.499537 58.4471 0.611477 59.8536 0.834873 61.2441C1.1862 63.7014 2.02087 66.0625 3.28953 68.1877C3.86745 69.2135 4.57029 70.1617 5.38157 71.0104C9.1104 74.4682 14.0542 76.268 19.1053 76.0064H44.6003C49.6434 76.2699 54.5792 74.4694 58.2962 71.0104C59.1173 70.1634 59.8295 69.215 60.4161 68.1877C61.6923 66.061 62.5452 63.7021 62.9266 61.2441C63.1269 59.8513 63.2294 58.4459 63.2334 57.0384V40.3285C63.3288 37.1292 62.8661 33.9378 61.8666 30.901C61.3587 29.4234 60.583 28.0546 59.5793 26.8646C59.2638 26.4889 58.9186 26.1396 58.5472 25.8203C55.3227 23.2487 51.2599 21.9992 47.1666 22.3202H37.7627C35.536 22.2765 33.4356 21.2476 32.02 19.4989L28.9796 15.2368C27.5465 13.4204 25.3628 12.3781 23.0661 12.4141H16.539C4.82355 12.4141 0.500003 19.386 0.500003 31.241V44.0557C0.499988 44.0571 0.500036 44.0585 0.500147 44.0599Z" fill="#CBFFC2" fill-opacity="0.3"/>
<path d="M0.500147 44.0599H1.00015C1.00015 44.0468 0.999636 44.0338 0.998615 44.0208L0.500147 44.0599ZM0.500147 57.0384L1.00015 57.0386V57.0384H0.500147ZM0.834873 61.2441L1.32991 61.1733L1.32854 61.1648L0.834873 61.2441ZM3.28953 68.1877L3.72528 67.9422L3.71886 67.9315L3.28953 68.1877ZM5.38157 71.0104L5.02016 71.3559C5.02709 71.3631 5.03424 71.3702 5.04159 71.377L5.38157 71.0104ZM19.1053 76.0064V75.5064C19.0967 75.5064 19.0881 75.5066 19.0795 75.5071L19.1053 76.0064ZM44.6003 76.0064L44.6264 75.5071C44.6177 75.5066 44.609 75.5064 44.6003 75.5064V76.0064ZM58.2962 71.0104L58.6368 71.3764C58.6431 71.3705 58.6492 71.3645 58.6552 71.3584L58.2962 71.0104ZM60.4161 68.1877L59.9873 67.9304L59.9819 67.9398L60.4161 68.1877ZM62.9266 61.2441L63.4207 61.3208L63.4215 61.3153L62.9266 61.2441ZM63.2334 57.0384L63.7334 57.0398V57.0384H63.2334ZM63.2334 40.3285L62.7336 40.3136C62.7335 40.3186 62.7334 40.3236 62.7334 40.3285H63.2334ZM61.8666 30.901L62.3416 30.7447L62.3395 30.7384L61.8666 30.901ZM59.5793 26.8646L59.1964 27.1862L59.1971 27.187L59.5793 26.8646ZM58.5472 25.8203L58.8732 25.4412C58.8686 25.4371 58.8638 25.4332 58.859 25.4294L58.5472 25.8203ZM47.1666 22.3202V22.8202C47.1796 22.8202 47.1926 22.8197 47.2056 22.8187L47.1666 22.3202ZM37.7627 22.3202L37.7529 22.8202H37.7627V22.3202ZM32.02 19.4989L31.613 19.7893C31.6189 19.7975 31.625 19.8056 31.6314 19.8135L32.02 19.4989ZM28.9796 15.2368L29.3867 14.9464C29.382 14.9398 29.3771 14.9334 29.3722 14.927L28.9796 15.2368ZM23.0661 12.4141V12.9142L23.074 12.9141L23.0661 12.4141ZM0.500003 44.0557L1 44.0608V44.0557H0.500003ZM0.000147313 44.0599V57.0384H1.00015V44.0599H0.000147313ZM0.000147343 57.0382C-0.000474662 58.4736 0.113581 59.9066 0.341204 61.3234L1.32854 61.1648C1.10937 59.8006 0.999548 58.4207 1.00015 57.0386L0.000147343 57.0382ZM0.339907 61.3149C0.700586 63.8376 1.5575 66.2617 2.86021 68.444L3.71886 67.9315C2.48425 65.8633 1.67182 63.5653 1.32984 61.1733L0.339907 61.3149ZM2.85392 68.4332C3.45224 69.4951 4.17998 70.477 5.02016 71.3559L5.74298 70.6648C4.96059 69.8464 4.28266 68.9318 3.72515 67.9423L2.85392 68.4332ZM5.04159 71.377C8.86883 74.9261 13.9443 76.7743 19.1312 76.5057L19.0795 75.5071C14.164 75.7616 9.35197 74.0103 5.72155 70.6437L5.04159 71.377ZM19.1053 76.5064H44.6003V75.5064H19.1053V76.5064ZM44.5742 76.5057C49.7534 76.7763 54.8213 74.9271 58.6368 71.3764L57.9556 70.6443C54.3372 74.0117 49.5334 75.7635 44.6264 75.5071L44.5742 76.5057ZM58.6552 71.3584C59.5055 70.4813 60.243 69.4992 60.8503 68.4357L59.9819 67.9398C59.4161 68.9308 58.729 69.8455 57.9372 70.6623L58.6552 71.3584ZM60.8449 68.445C62.1544 66.2627 63.0294 63.8425 63.4207 61.3208L62.4325 61.1674C62.061 63.5618 61.2303 65.8593 59.9874 67.9305L60.8449 68.445ZM63.4215 61.3153C63.6251 59.8994 63.7293 58.4706 63.7334 57.0398L62.7334 57.037C62.7295 58.4211 62.6286 59.8032 62.4317 61.1729L63.4215 61.3153ZM63.7334 57.0384V40.3285H62.7334V57.0384H63.7334ZM63.7332 40.3434C63.8303 37.086 63.3592 33.8368 62.3416 30.7447L61.3917 31.0573C62.3729 34.0389 62.8272 37.1723 62.7336 40.3136L63.7332 40.3434ZM62.3395 30.7384C61.8115 29.2027 61.0052 27.7796 59.9615 26.5423L59.1971 27.187C60.1608 28.3296 60.9058 29.6442 61.3938 31.0635L62.3395 30.7384ZM59.9622 26.5431C59.6293 26.1467 59.2651 25.7781 58.8732 25.4412L58.2213 26.1994C58.5721 26.501 58.8982 26.831 59.1964 27.1862L59.9622 26.5431ZM58.859 25.4294C55.5358 22.7792 51.3478 21.4908 47.1275 21.8218L47.2056 22.8187C51.172 22.5077 55.1095 23.7183 58.2355 26.2112L58.859 25.4294ZM47.1666 21.8202H37.7627V22.8202H47.1666V21.8202ZM37.7726 21.8203C35.6942 21.7795 33.7321 20.8192 32.4087 19.1843L31.6314 19.8135C33.1391 21.676 35.3777 22.7734 37.7529 22.8201L37.7726 21.8203ZM32.4271 19.2085L29.3867 14.9464L28.5726 15.5271L31.613 19.7893L32.4271 19.2085ZM29.3722 14.927C27.8433 12.9894 25.5121 11.8757 23.0583 11.9142L23.074 12.9141C25.2135 12.8805 27.2496 13.8514 28.5871 15.5465L29.3722 14.927ZM23.0661 11.9141H16.539V12.9141H23.0661V11.9141ZM16.539 11.9141C10.5782 11.9141 6.40103 13.6928 3.73373 17.0722C1.08594 20.4268 2.563e-06 25.269 2.563e-06 31.241H1C1 25.358 2.07584 20.7867 4.51868 17.6917C6.942 14.6214 10.7843 12.9141 16.539 12.9141V11.9141ZM2.563e-06 31.241V44.0557H1V31.241H2.563e-06ZM2.92957e-05 44.0505C-0.000139207 44.0668 0.000421464 44.083 0.00167918 44.099L0.998615 44.0208C0.999651 44.034 1.00012 44.0474 0.999976 44.0608L2.92957e-05 44.0505Z" fill="url(#paint1_linear_112_438)" mask="url(#path-3-outside-1_112_438)"/>
</g>
<g filter="url(#filter2_bd_112_438)">
<path d="M47.7305 62.0247H16.1547C14.722 62.0247 13.5605 60.8494 13.5605 59.3997C13.5605 57.9499 14.722 56.7746 16.1547 56.7746H47.9816C48.7542 56.7835 49.4776 57.16 49.9341 57.7908C50.331 58.2602 50.5312 58.8678 50.492 59.4843C50.4703 60.1857 50.1719 60.8492 49.6636 61.3265C49.1552 61.8038 48.4791 62.0552 47.7863 62.0247H47.7305Z" fill="url(#paint2_linear_112_438)"/>
<path d="M49.7721 57.908L49.7765 57.9141L49.7814 57.9199C50.1448 58.3497 50.3283 58.9064 50.2924 59.4717L50.2923 59.4716L50.2921 59.4782C50.272 60.1269 49.9961 60.7399 49.5267 61.1807C49.0574 61.6213 48.4337 61.853 47.7951 61.8249L47.7951 61.8247H47.7863H47.7305H16.1547C14.8347 61.8247 13.7605 60.7412 13.7605 59.3997C13.7605 58.0581 14.8347 56.9746 16.1547 56.9746H47.9804C48.6887 56.9831 49.3526 57.3284 49.7721 57.908Z" stroke="url(#paint3_linear_112_438)" stroke-width="0.4"/>
</g>
<g filter="url(#filter3_bd_112_438)">
<mask id="path-7-inside-2_112_438" fill="white">
<path d="M28.3533 54.1746C27.5704 54.1746 26.7875 53.8867 26.1899 53.3077L17.8964 45.2716C16.7012 44.1135 16.7012 42.2374 17.8964 41.0826C19.0917 39.9245 21.0244 39.9211 22.2197 41.0792L28.3533 47.0224L42.7803 33.0432C43.9756 31.8851 45.9083 31.8851 47.1035 33.0432C48.2988 34.2014 48.2988 36.0775 47.1035 37.2356L30.5166 53.3077C29.919 53.8867 29.1361 54.1746 28.3533 54.1746Z"/>
</mask>
<path d="M28.3533 54.1746C27.5704 54.1746 26.7875 53.8867 26.1899 53.3077L17.8964 45.2716C16.7012 44.1135 16.7012 42.2374 17.8964 41.0826C19.0917 39.9245 21.0244 39.9211 22.2197 41.0792L28.3533 47.0224L42.7803 33.0432C43.9756 31.8851 45.9083 31.8851 47.1035 33.0432C48.2988 34.2014 48.2988 36.0775 47.1035 37.2356L30.5166 53.3077C29.919 53.8867 29.1361 54.1746 28.3533 54.1746Z" fill="url(#paint4_linear_112_438)"/>
<path d="M17.8964 41.0826L18.0354 41.2265L18.0356 41.2263L17.8964 41.0826ZM28.3533 47.0224L28.2141 47.1661L28.3533 47.3009L28.4924 47.1661L28.3533 47.0224ZM47.1035 37.2356L46.9644 37.092L47.1035 37.2356ZM30.5166 53.3077L30.6558 53.4513L30.5166 53.3077ZM28.3533 53.9746C27.6191 53.9746 26.8871 53.7047 26.3291 53.164L26.0507 53.4513C26.688 54.0688 27.5217 54.3746 28.3533 54.3746V53.9746ZM26.3291 53.164L18.0356 45.128L17.7573 45.4153L26.0507 53.4513L26.3291 53.164ZM18.0356 45.128C16.9213 44.0483 16.9216 42.3025 18.0354 41.2265L17.7575 40.9388C16.4807 42.1723 16.481 44.1786 17.7573 45.4153L18.0356 45.128ZM18.0356 41.2263C19.1536 40.143 20.9631 40.1401 22.0805 41.2229L22.3588 40.9356C21.0857 39.702 19.0298 39.7059 17.7573 40.939L18.0356 41.2263ZM22.0805 41.2229L28.2141 47.1661L28.4924 46.8788L22.3588 40.9356L22.0805 41.2229ZM28.4924 47.1661L42.9195 33.1868L42.6412 32.8996L28.2141 46.8788L28.4924 47.1661ZM42.9195 33.1868C44.0372 32.1038 45.8467 32.1038 46.9644 33.1868L47.2427 32.8996C45.9699 31.6663 43.914 31.6663 42.6412 32.8996L42.9195 33.1868ZM46.9644 33.1868C48.0785 34.2664 48.0785 36.0124 46.9644 37.092L47.2427 37.3793C48.5191 36.1425 48.5191 34.1363 47.2427 32.8996L46.9644 33.1868ZM46.9644 37.092L30.3775 53.164L30.6558 53.4513L47.2427 37.3793L46.9644 37.092ZM30.3775 53.164C29.8194 53.7047 29.0875 53.9746 28.3533 53.9746V54.3746C29.1848 54.3746 30.0186 54.0688 30.6558 53.4513L30.3775 53.164Z" fill="url(#paint5_linear_112_438)" fill-opacity="0.5" mask="url(#path-7-inside-2_112_438)"/>
</g>
<defs>
<filter id="filter0_f_112_438" x="15.5986" y="0.574768" width="68.2852" height="71.5059" filterUnits="userSpaceOnUse" color-interpolation-filters="sRGB">
<feFlood flood-opacity="0" result="BackgroundImageFix"/>
<feBlend mode="normal" in="SourceGraphic" in2="BackgroundImageFix" result="shape"/>
<feGaussianBlur stdDeviation="7.5" result="effect1_foregroundBlur_112_438"/>
</filter>
<filter id="filter1_b_112_438" x="-15" y="-3.08676" width="93.7461" height="94.6185" filterUnits="userSpaceOnUse" color-interpolation-filters="sRGB">
<feFlood flood-opacity="0" result="BackgroundImageFix"/>
<feGaussianBlur in="BackgroundImage" stdDeviation="7.5"/>
<feComposite in2="SourceAlpha" operator="in" result="effect1_backgroundBlur_112_438"/>
<feBlend mode="normal" in="SourceGraphic" in2="effect1_backgroundBlur_112_438" result="shape"/>
</filter>
<filter id="filter2_bd_112_438" x="-1.43945" y="41.7746" width="66.9365" height="35.2525" filterUnits="userSpaceOnUse" color-interpolation-filters="sRGB">
<feFlood flood-opacity="0" result="BackgroundImageFix"/>
<feGaussianBlur in="BackgroundImage" stdDeviation="7.5"/>
<feComposite in2="SourceAlpha" operator="in" result="effect1_backgroundBlur_112_438"/>
<feColorMatrix in="SourceAlpha" type="matrix" values="0 0 0 0 0 0 0 0 0 0 0 0 0 0 0 0 0 0 127 0" result="hardAlpha"/>
<feOffset dx="5" dy="5"/>
<feGaussianBlur stdDeviation="5"/>
<feColorMatrix type="matrix" values="0 0 0 0 0.976471 0 0 0 0 0.435294 0 0 0 0 0.352941 0 0 0 0.5 0"/>
<feBlend mode="normal" in2="effect1_backgroundBlur_112_438" result="effect2_dropShadow_112_438"/>
<feBlend mode="normal" in="SourceGraphic" in2="effect2_dropShadow_112_438" result="shape"/>
</filter>
<filter id="filter3_bd_112_438" x="2" y="17.1746" width="61" height="52" filterUnits="userSpaceOnUse" color-interpolation-filters="sRGB">
<feFlood flood-opacity="0" result="BackgroundImageFix"/>
<feGaussianBlur in="BackgroundImage" stdDeviation="7.5"/>
<feComposite in2="SourceAlpha" operator="in" result="effect1_backgroundBlur_112_438"/>
<feColorMatrix in="SourceAlpha" type="matrix" values="0 0 0 0 0 0 0 0 0 0 0 0 0 0 0 0 0 0 127 0" result="hardAlpha"/>
<feOffset dx="5" dy="5"/>
<feGaussianBlur stdDeviation="5"/>
<feColorMatrix type="matrix" values="0 0 0 0 0.454902 0 0 0 0 0.870588 0 0 0 0 0.376471 0 0 0 0.5 0"/>
<feBlend mode="normal" in2="effect1_backgroundBlur_112_438" result="effect2_dropShadow_112_438"/>
<feBlend mode="normal" in="SourceGraphic" in2="effect2_dropShadow_112_438" result="shape"/>
</filter>
<linearGradient id="paint0_linear_112_438" x1="80.5005" y1="16.0547" x2="32.0016" y2="45.3283" gradientUnits="userSpaceOnUse">
<stop stop-color="#9BF763"/>
<stop offset="1" stop-color="#26AB5B"/>
</linearGradient>
<linearGradient id="paint1_linear_112_438" x1="10.4881" y1="19.8249" x2="51.1845" y2="69.5368" gradientUnits="userSpaceOnUse">
<stop stop-color="white" stop-opacity="0.25"/>
<stop offset="1" stop-color="white" stop-opacity="0"/>
</linearGradient>
<linearGradient id="paint2_linear_112_438" x1="47.8781" y1="57.7231" x2="8.74781" y2="66.6948" gradientUnits="userSpaceOnUse">
<stop stop-color="white"/>
<stop offset="1" stop-color="white" stop-opacity="0.2"/>
</linearGradient>
<linearGradient id="paint3_linear_112_438" x1="19.4402" y1="57.3866" x2="20.217" y2="64.1524" gradientUnits="userSpaceOnUse">
<stop stop-color="white" stop-opacity="0.25"/>
<stop offset="1" stop-color="white" stop-opacity="0"/>
</linearGradient>
<linearGradient id="paint4_linear_112_438" x1="45.8021" y1="36.1473" x2="11.3072" y2="37.7321" gradientUnits="userSpaceOnUse">
<stop stop-color="white"/>
<stop offset="1" stop-color="white" stop-opacity="0.2"/>
</linearGradient>
<linearGradient id="paint5_linear_112_438" x1="20.3394" y1="39.5545" x2="46.6619" y2="39.7593" gradientUnits="userSpaceOnUse">
<stop stop-color="white"/>
<stop offset="1" stop-color="white" stop-opacity="0"/>
</linearGradient>
</defs>
</svg>
