<svg width="25" height="24" viewBox="0 0 25 24" fill="none" xmlns="http://www.w3.org/2000/svg">
<g clip-path="url(#clip0_112_517)">
<path d="M12.5037 5.83826C9.1007 5.83826 6.3457 8.59626 6.3457 11.9963C6.3457 15.3993 9.1037 18.1543 12.5037 18.1543C15.9067 18.1543 18.6617 15.3963 18.6617 11.9963C18.6617 8.59326 15.9037 5.83826 12.5037 5.83826ZM12.5037 15.9933C10.2947 15.9933 8.5067 14.2043 8.5067 11.9963C8.5067 9.78826 10.2957 7.99926 12.5037 7.99926C14.7117 7.99926 16.5007 9.78826 16.5007 11.9963C16.5017 14.2043 14.7127 15.9933 12.5037 15.9933Z" fill="white"/>
<path d="M17.4482 0.075997C15.2402 -0.027003 9.77123 -0.022003 7.56123 0.075997C5.61923 0.166997 3.90623 0.635997 2.52523 2.017C0.217227 4.325 0.512227 7.435 0.512227 11.996C0.512227 16.664 0.252227 19.702 2.52523 21.975C4.84223 24.291 7.99723 23.988 12.5042 23.988C17.1282 23.988 18.7242 23.991 20.3592 23.358C22.5822 22.495 24.2602 20.508 24.4242 16.939C24.5282 14.73 24.5222 9.262 24.4242 7.052C24.2262 2.839 21.9652 0.283997 17.4482 0.075997ZM20.9432 20.448C19.4302 21.961 17.3312 21.826 12.4752 21.826C7.47523 21.826 5.47023 21.9 4.00723 20.433C2.32223 18.756 2.62723 16.063 2.62723 11.98C2.62723 6.455 2.06023 2.476 7.60523 2.192C8.87923 2.147 9.25423 2.132 12.4612 2.132L12.5062 2.162C17.8352 2.162 22.0162 1.604 22.2672 7.148C22.3242 8.413 22.3372 8.793 22.3372 11.995C22.3362 16.937 22.4302 18.954 20.9432 20.448Z" fill="white"/>
<path d="M18.9058 7.034C19.7005 7.034 20.3448 6.38974 20.3448 5.595C20.3448 4.80027 19.7005 4.15601 18.9058 4.15601C18.1111 4.15601 17.4668 4.80027 17.4668 5.595C17.4668 6.38974 18.1111 7.034 18.9058 7.034Z" fill="white"/>
</g>
<defs>
<clipPath id="clip0_112_517">
<rect width="24" height="24" fill="white" transform="translate(0.5)"/>
</clipPath>
</defs>
</svg>
