<svg width="84" height="77" viewBox="0 0 84 77" fill="none" xmlns="http://www.w3.org/2000/svg">
<path d="M67.835 12.4892L45.7619 6.48034C37.7554 4.30077 31.8376 7.79457 29.6852 15.9556L22.3953 43.5961C20.2077 51.8909 23.6414 57.8158 31.6479 59.9954L53.721 66.0042C61.8565 68.2189 67.6144 64.7963 69.8021 56.5015L77.092 28.861C79.2443 20.6999 75.9705 14.7039 67.835 12.4892Z" fill="url(#paint0_linear_112_422)"/>
<g opacity="0.5" filter="url(#filter0_f_112_422)">
<path d="M62.1126 19.9996L47.0189 15.8907C41.5441 14.4003 37.4975 16.7894 36.0257 22.3699L31.0408 41.2706C29.5449 46.9426 31.8929 50.994 37.3678 52.4844L52.4614 56.5933C58.0245 58.1077 61.9618 55.7673 63.4577 50.0953L68.4425 31.1946C69.9143 25.6141 67.6757 21.514 62.1126 19.9996Z" fill="#5280F8"/>
</g>
<g filter="url(#filter1_b_112_422)">
<mask id="path-3-outside-1_112_422" maskUnits="userSpaceOnUse" x="-0.5" y="11.2885" width="65" height="66" fill="black">
<rect fill="white" x="-0.5" y="11.2885" width="65" height="66"/>
<path fill-rule="evenodd" clip-rule="evenodd" d="M0.500175 43.9976V57.0012C0.499565 58.4127 0.611505 59.8219 0.834902 61.2151C1.18623 63.6772 2.0209 66.043 3.28956 68.1724C3.86748 69.2001 4.57032 70.1502 5.3816 71.0005C9.11043 74.4652 14.0542 76.2684 19.1054 76.0063H44.6004C49.6434 76.2704 54.5793 74.4663 58.2962 71.0005C59.1173 70.1519 59.8296 69.2017 60.4162 68.1724C61.6924 66.0414 62.5452 63.678 62.9266 61.2151C63.1269 59.8196 63.2294 58.4114 63.2334 57.0012V40.2585C63.3288 37.0529 62.8661 33.8553 61.8666 30.8125C61.3587 29.332 60.583 27.9605 59.5793 26.7682C59.2638 26.3917 58.9186 26.0418 58.5473 25.7218C55.3227 23.1452 51.2599 21.8933 47.1666 22.2149H37.7623C35.5357 22.1709 33.4355 21.14 32.02 19.3881L28.9796 15.1176C27.5465 13.2976 25.3628 12.2533 23.0661 12.2894H16.539C4.82355 12.2894 0.500003 19.275 0.500003 31.1532V43.993C0.499987 43.9945 0.500044 43.996 0.500175 43.9976Z"/>
</mask>
<path fill-rule="evenodd" clip-rule="evenodd" d="M0.500175 43.9976V57.0012C0.499565 58.4127 0.611505 59.8219 0.834902 61.2151C1.18623 63.6772 2.0209 66.043 3.28956 68.1724C3.86748 69.2001 4.57032 70.1502 5.3816 71.0005C9.11043 74.4652 14.0542 76.2684 19.1054 76.0063H44.6004C49.6434 76.2704 54.5793 74.4663 58.2962 71.0005C59.1173 70.1519 59.8296 69.2017 60.4162 68.1724C61.6924 66.0414 62.5452 63.678 62.9266 61.2151C63.1269 59.8196 63.2294 58.4114 63.2334 57.0012V40.2585C63.3288 37.0529 62.8661 33.8553 61.8666 30.8125C61.3587 29.332 60.583 27.9605 59.5793 26.7682C59.2638 26.3917 58.9186 26.0418 58.5473 25.7218C55.3227 23.1452 51.2599 21.8933 47.1666 22.2149H37.7623C35.5357 22.1709 33.4355 21.14 32.02 19.3881L28.9796 15.1176C27.5465 13.2976 25.3628 12.2533 23.0661 12.2894H16.539C4.82355 12.2894 0.500003 19.275 0.500003 31.1532V43.993C0.499987 43.9945 0.500044 43.996 0.500175 43.9976Z" fill="#5280F8" fill-opacity="0.4"/>
<path d="M0.500175 43.9976H1.00018C1.00018 43.9833 0.999568 43.9691 0.998356 43.955L0.500175 43.9976ZM0.500175 57.0012L1.00018 57.0014V57.0012H0.500175ZM0.834902 61.2151L1.32996 61.1445L1.3286 61.136L0.834902 61.2151ZM3.28956 68.1724L3.72552 67.9272L3.7191 67.9165L3.28956 68.1724ZM5.3816 71.0005L5.01985 71.3457C5.02677 71.3529 5.03391 71.36 5.04126 71.3668L5.3816 71.0005ZM19.1054 76.0063V75.5063C19.0967 75.5063 19.0881 75.5066 19.0795 75.507L19.1054 76.0063ZM44.6004 76.0063L44.6265 75.507C44.6178 75.5066 44.6091 75.5063 44.6004 75.5063V76.0063ZM58.2962 71.0005L58.6372 71.3662C58.6435 71.3604 58.6496 71.3544 58.6556 71.3482L58.2962 71.0005ZM60.4162 68.1724L59.9871 67.9154L59.9817 67.9248L60.4162 68.1724ZM62.9266 61.2151L63.4207 61.2916L63.4215 61.2861L62.9266 61.2151ZM63.2334 57.0012L63.7334 57.0026V57.0012H63.2334ZM63.2334 40.2585L62.7337 40.2437C62.7335 40.2486 62.7334 40.2536 62.7334 40.2585H63.2334ZM61.8666 30.8125L62.3417 30.6565L62.3396 30.6502L61.8666 30.8125ZM59.5793 26.7682L59.1961 27.0894L59.1968 27.0902L59.5793 26.7682ZM58.5473 25.7218L58.8736 25.343C58.869 25.339 58.8642 25.3351 58.8594 25.3312L58.5473 25.7218ZM47.1666 22.2149V22.7149C47.1797 22.7149 47.1927 22.7144 47.2057 22.7134L47.1666 22.2149ZM37.7623 22.2149L37.7524 22.7149H37.7623V22.2149ZM32.02 19.3881L31.6127 19.6781C31.6186 19.6863 31.6247 19.6944 31.6311 19.7023L32.02 19.3881ZM28.9796 15.1176L29.3869 14.8276C29.3823 14.821 29.3774 14.8146 29.3724 14.8082L28.9796 15.1176ZM23.0661 12.2894V12.7895L23.074 12.7894L23.0661 12.2894ZM0.500003 43.993L1 43.9981V43.993H0.500003ZM0.000175506 43.9976V57.0012H1.00018V43.9976H0.000175506ZM0.000175565 57.001C-0.000446409 58.439 0.113601 59.8748 0.341208 61.2943L1.3286 61.136C1.10941 59.769 0.999576 58.3863 1.00018 57.0014L0.000175565 57.001ZM0.339916 61.2857C0.700558 63.8131 1.55739 66.2418 2.86002 68.4283L3.7191 67.9165C2.48442 65.8441 1.67191 63.5414 1.32989 61.1445L0.339916 61.2857ZM2.85374 68.4174C3.45201 69.4814 4.17971 70.4652 5.01985 71.3457L5.74335 70.6554C4.96093 69.8353 4.28294 68.9188 3.72538 67.9273L2.85374 68.4174ZM5.04126 71.3668C8.86845 74.9229 13.9441 76.7748 19.1313 76.5057L19.0795 75.507C14.1643 75.7621 9.35241 74.0075 5.72194 70.6342L5.04126 71.3668ZM19.1054 76.5063H44.6004V75.5063H19.1054V76.5063ZM44.5742 76.5057C49.7537 76.7768 54.8218 74.9238 58.6372 71.3662L57.9552 70.6348C54.3368 74.0088 49.5332 75.7639 44.6265 75.507L44.5742 76.5057ZM58.6556 71.3482C59.5059 70.4694 60.2433 69.4855 60.8506 68.4199L59.9817 67.9248C59.4158 68.9179 58.7288 69.8344 57.9369 70.6528L58.6556 71.3482ZM60.8451 68.4293C62.1546 66.2428 63.0295 63.818 63.4207 61.2916L62.4325 61.1386C62.0609 63.5379 61.2301 65.8401 59.9872 67.9155L60.8451 68.4293ZM63.4215 61.2861C63.6251 59.8675 63.7293 58.4361 63.7334 57.0026L62.7334 56.9997C62.7295 58.3867 62.6286 59.7716 62.4317 61.1441L63.4215 61.2861ZM63.7334 57.0012V40.2585H62.7334V57.0012H63.7334ZM63.7332 40.2734C63.8303 37.0099 63.3593 33.7544 62.3417 30.6565L61.3916 30.9685C62.373 33.9562 62.8273 37.0959 62.7337 40.2437L63.7332 40.2734ZM62.3396 30.6502C61.8117 29.1117 61.0054 27.6859 59.9619 26.4463L59.1968 27.0902C60.1606 28.2351 60.9057 29.5524 61.3937 30.9748L62.3396 30.6502ZM59.9626 26.4471C59.6297 26.0499 59.2655 25.6806 58.8736 25.343L58.2209 26.1006C58.5718 26.4029 58.8979 26.7336 59.1961 27.0894L59.9626 26.4471ZM58.8594 25.3312C55.5363 22.6758 51.348 21.3848 47.1274 21.7165L47.2057 22.7134C51.1718 22.4018 55.1092 23.6146 58.2351 26.1124L58.8594 25.3312ZM47.1666 21.7149H37.7623V22.7149H47.1666V21.7149ZM37.7722 21.715C35.6944 21.674 33.7324 20.712 32.409 19.0739L31.6311 19.7023C33.1385 21.5681 35.3771 22.6679 37.7524 22.7148L37.7722 21.715ZM32.4274 19.0981L29.3869 14.8276L28.5723 15.4076L31.6127 19.6781L32.4274 19.0981ZM29.3724 14.8082C27.8437 12.867 25.5125 11.7509 23.0583 11.7895L23.074 12.7894C25.2131 12.7557 27.2492 13.7283 28.5868 15.4269L29.3724 14.8082ZM23.0661 11.7894H16.539V12.7894H23.0661V11.7894ZM16.539 11.7894C10.5779 11.7894 6.40062 13.5717 3.73343 16.9576C1.08589 20.3185 2.563e-06 25.1697 2.563e-06 31.1532H1C1 25.2584 2.07589 20.6778 4.51898 17.5764C6.94242 14.4999 10.7846 12.7894 16.539 12.7894V11.7894ZM2.563e-06 31.1532V43.993H1V31.1532H2.563e-06ZM2.92063e-05 43.9878C-0.0001522 44.0054 0.000513226 44.0229 0.00199491 44.0402L0.998356 43.955C0.999576 43.9692 1.00013 43.9836 0.999976 43.9981L2.92063e-05 43.9878Z" fill="url(#paint1_linear_112_422)" mask="url(#path-3-outside-1_112_422)"/>
</g>
<g filter="url(#filter2_bd_112_422)">
<path d="M47.7276 61.2505H16.1517C14.719 61.2505 13.5576 60.0729 13.5576 58.6203C13.5576 57.1677 14.719 55.9901 16.1517 55.9901H47.9786C48.7513 55.999 49.4747 56.3762 49.9312 57.0082C50.3281 57.4786 50.5283 58.0874 50.4891 58.7051C50.4674 59.4079 50.169 60.0726 49.6606 60.5509C49.1523 61.0291 48.4762 61.2811 47.7834 61.2505H47.7276Z" fill="url(#paint2_linear_112_422)"/>
<path d="M49.7691 57.1254L49.7735 57.1315L49.7783 57.1372C50.1418 57.5679 50.3254 58.1259 50.2895 58.6925L50.2894 58.6925L50.2892 58.699C50.2691 59.3492 49.993 59.9636 49.5236 60.4052C49.0543 60.8467 48.4307 61.0789 47.7922 61.0507L47.7922 61.0505H47.7834H47.7276H16.1517C14.8321 61.0505 13.7576 59.9651 13.7576 58.6203C13.7576 57.2755 14.8321 56.1901 16.1517 56.1901H47.9775C48.6856 56.1986 49.3495 56.5445 49.7691 57.1254Z" stroke="url(#paint3_linear_112_422)" stroke-width="0.4"/>
</g>
<g filter="url(#filter3_bd_112_422)">
<path d="M47.7305 50.6087H16.1547C14.722 50.6087 13.5605 49.4311 13.5605 47.9785C13.5605 46.5259 14.722 45.3483 16.1547 45.3483H47.9816C48.7542 45.3572 49.4776 45.7344 49.9341 46.3665C50.331 46.8368 50.5312 47.4456 50.492 48.0634C50.4703 48.7661 50.1719 49.4308 49.6636 49.9091C49.1552 50.3873 48.4791 50.6393 47.7863 50.6087H47.7305Z" fill="url(#paint4_linear_112_422)"/>
<path d="M49.772 46.4836L49.7764 46.4897L49.7813 46.4954C50.1447 46.9261 50.3283 47.4841 50.2924 48.0507L50.2923 48.0507L50.2921 48.0572C50.272 48.7074 49.996 49.3218 49.5265 49.7634C49.0572 50.2049 48.4336 50.4371 47.7951 50.4089L47.7951 50.4087H47.7863H47.7305H16.1547C14.835 50.4087 13.7605 49.3233 13.7605 47.9785C13.7605 46.6337 14.835 45.5483 16.1547 45.5483H47.9804C48.6885 45.5568 49.3524 45.9027 49.772 46.4836Z" stroke="url(#paint5_linear_112_422)" stroke-width="0.4"/>
</g>
<defs>
<filter id="filter0_f_112_422" x="15.5986" y="0.456268" width="68.2852" height="71.5873" filterUnits="userSpaceOnUse" color-interpolation-filters="sRGB">
<feFlood flood-opacity="0" result="BackgroundImageFix"/>
<feBlend mode="normal" in="SourceGraphic" in2="BackgroundImageFix" result="shape"/>
<feGaussianBlur stdDeviation="7.5" result="effect1_foregroundBlur_112_422"/>
</filter>
<filter id="filter1_b_112_422" x="-15" y="-3.21149" width="93.7461" height="94.7432" filterUnits="userSpaceOnUse" color-interpolation-filters="sRGB">
<feFlood flood-opacity="0" result="BackgroundImageFix"/>
<feGaussianBlur in="BackgroundImage" stdDeviation="7.5"/>
<feComposite in2="SourceAlpha" operator="in" result="effect1_backgroundBlur_112_422"/>
<feBlend mode="normal" in="SourceGraphic" in2="effect1_backgroundBlur_112_422" result="shape"/>
</filter>
<filter id="filter2_bd_112_422" x="-1.44238" y="40.9901" width="66.9365" height="35.2628" filterUnits="userSpaceOnUse" color-interpolation-filters="sRGB">
<feFlood flood-opacity="0" result="BackgroundImageFix"/>
<feGaussianBlur in="BackgroundImage" stdDeviation="7.5"/>
<feComposite in2="SourceAlpha" operator="in" result="effect1_backgroundBlur_112_422"/>
<feColorMatrix in="SourceAlpha" type="matrix" values="0 0 0 0 0 0 0 0 0 0 0 0 0 0 0 0 0 0 127 0" result="hardAlpha"/>
<feOffset dx="5" dy="5"/>
<feGaussianBlur stdDeviation="5"/>
<feColorMatrix type="matrix" values="0 0 0 0 0.321569 0 0 0 0 0.501961 0 0 0 0 0.972549 0 0 0 0.5 0"/>
<feBlend mode="normal" in2="effect1_backgroundBlur_112_422" result="effect2_dropShadow_112_422"/>
<feBlend mode="normal" in="SourceGraphic" in2="effect2_dropShadow_112_422" result="shape"/>
</filter>
<filter id="filter3_bd_112_422" x="-1.43945" y="30.3483" width="66.9365" height="35.2628" filterUnits="userSpaceOnUse" color-interpolation-filters="sRGB">
<feFlood flood-opacity="0" result="BackgroundImageFix"/>
<feGaussianBlur in="BackgroundImage" stdDeviation="7.5"/>
<feComposite in2="SourceAlpha" operator="in" result="effect1_backgroundBlur_112_422"/>
<feColorMatrix in="SourceAlpha" type="matrix" values="0 0 0 0 0 0 0 0 0 0 0 0 0 0 0 0 0 0 127 0" result="hardAlpha"/>
<feOffset dx="5" dy="5"/>
<feGaussianBlur stdDeviation="5"/>
<feColorMatrix type="matrix" values="0 0 0 0 0.321569 0 0 0 0 0.501961 0 0 0 0 0.972549 0 0 0 0.5 0"/>
<feBlend mode="normal" in2="effect1_backgroundBlur_112_422" result="effect2_dropShadow_112_422"/>
<feBlend mode="normal" in="SourceGraphic" in2="effect2_dropShadow_112_422" result="shape"/>
</filter>
<linearGradient id="paint0_linear_112_422" x1="34.3343" y1="19.0415" x2="56.0343" y2="95.4464" gradientUnits="userSpaceOnUse">
<stop stop-color="#8FC6FF"/>
<stop offset="1" stop-color="#2C6AF2"/>
</linearGradient>
<linearGradient id="paint1_linear_112_422" x1="10.4881" y1="19.7147" x2="51.28" y2="69.4458" gradientUnits="userSpaceOnUse">
<stop stop-color="white" stop-opacity="0.25"/>
<stop offset="1" stop-color="white" stop-opacity="0"/>
</linearGradient>
<linearGradient id="paint2_linear_112_422" x1="47.8752" y1="56.9405" x2="8.73724" y2="65.8963" gradientUnits="userSpaceOnUse">
<stop stop-color="white"/>
<stop offset="1" stop-color="white" stop-opacity="0.2"/>
</linearGradient>
<linearGradient id="paint3_linear_112_422" x1="19.4373" y1="56.6032" x2="20.2171" y2="63.382" gradientUnits="userSpaceOnUse">
<stop stop-color="white" stop-opacity="0.25"/>
<stop offset="1" stop-color="white" stop-opacity="0"/>
</linearGradient>
<linearGradient id="paint4_linear_112_422" x1="47.8781" y1="46.2987" x2="8.74017" y2="55.2545" gradientUnits="userSpaceOnUse">
<stop stop-color="white"/>
<stop offset="1" stop-color="white" stop-opacity="0.2"/>
</linearGradient>
<linearGradient id="paint5_linear_112_422" x1="19.4402" y1="45.9615" x2="20.2201" y2="52.7402" gradientUnits="userSpaceOnUse">
<stop stop-color="white" stop-opacity="0.25"/>
<stop offset="1" stop-color="white" stop-opacity="0"/>
</linearGradient>
</defs>
</svg>
