<svg width="84" height="77" viewBox="0 0 84 77" fill="none" xmlns="http://www.w3.org/2000/svg">
<path d="M67.835 12.439L45.7619 6.44185C37.7554 4.26655 31.8376 7.75351 29.6852 15.8986L22.3953 43.485C20.2077 51.7636 23.6414 57.6768 31.6479 59.8521L53.721 65.8493C61.8565 68.0596 67.6144 64.6437 69.8021 56.3651L77.092 28.7787C79.2443 20.6336 75.9705 14.6494 67.835 12.439Z" fill="url(#paint0_linear_112_455)"/>
<g opacity="0.5" filter="url(#filter0_f_112_455)">
<path d="M62.1126 19.9346L47.0189 15.8338C41.5441 14.3463 37.4975 16.7307 36.0257 22.3003L31.0408 41.164C29.5449 46.8249 31.8929 50.8684 37.3678 52.3559L52.4614 56.4567C58.0245 57.9682 61.9618 55.6324 63.4577 49.9714L68.4425 31.1078C69.9143 25.5381 67.6757 21.4461 62.1126 19.9346Z" fill="#DFDED5"/>
</g>
<g filter="url(#filter1_b_112_455)">
<mask id="path-3-outside-1_112_455" maskUnits="userSpaceOnUse" x="-0.5" y="11.2386" width="65" height="66" fill="black">
<rect fill="white" x="-0.5" y="11.2386" width="65" height="66"/>
<path fill-rule="evenodd" clip-rule="evenodd" d="M0.500147 43.8853V56.8638C0.499537 58.2726 0.611477 59.679 0.834873 61.0695C1.1862 63.5268 2.02088 65.8879 3.28953 68.0131C3.86745 69.0389 4.57029 69.9871 5.38157 70.8358C9.1104 74.2936 14.0542 76.0934 19.1053 75.8318H44.6003C49.6434 76.0953 54.5792 74.2948 58.2962 70.8358C59.1173 69.9888 59.8295 69.0404 60.4161 68.0131C61.6923 65.8864 62.5452 63.5276 62.9266 61.0695C63.1269 59.6767 63.2294 58.2713 63.2334 56.8638V40.1539C63.3288 36.9546 62.8661 33.7632 61.8666 30.7264C61.3587 29.2488 60.583 27.88 59.5793 26.6901C59.2638 26.3143 58.9186 25.965 58.5472 25.6457C55.3227 23.0741 51.2599 21.8246 47.1666 22.1456H37.7627C35.536 22.1019 33.4356 21.073 32.02 19.3243L28.9796 15.0622C27.5465 13.2458 25.3628 12.2035 23.0661 12.2396H16.539C4.82355 12.2396 0.500003 19.2114 0.500003 31.0664V43.8811C0.499988 43.8825 0.500036 43.8839 0.500147 43.8853Z"/>
</mask>
<path fill-rule="evenodd" clip-rule="evenodd" d="M0.500147 43.8853V56.8638C0.499537 58.2726 0.611477 59.679 0.834873 61.0695C1.1862 63.5268 2.02088 65.8879 3.28953 68.0131C3.86745 69.0389 4.57029 69.9871 5.38157 70.8358C9.1104 74.2936 14.0542 76.0934 19.1053 75.8318H44.6003C49.6434 76.0953 54.5792 74.2948 58.2962 70.8358C59.1173 69.9888 59.8295 69.0404 60.4161 68.0131C61.6923 65.8864 62.5452 63.5276 62.9266 61.0695C63.1269 59.6767 63.2294 58.2713 63.2334 56.8638V40.1539C63.3288 36.9546 62.8661 33.7632 61.8666 30.7264C61.3587 29.2488 60.583 27.88 59.5793 26.6901C59.2638 26.3143 58.9186 25.965 58.5472 25.6457C55.3227 23.0741 51.2599 21.8246 47.1666 22.1456H37.7627C35.536 22.1019 33.4356 21.073 32.02 19.3243L28.9796 15.0622C27.5465 13.2458 25.3628 12.2035 23.0661 12.2396H16.539C4.82355 12.2396 0.500003 19.2114 0.500003 31.0664V43.8811C0.499988 43.8825 0.500036 43.8839 0.500147 43.8853Z" fill="#DFDED5" fill-opacity="0.3"/>
<path d="M0.500147 43.8853H1.00015C1.00015 43.8723 0.999636 43.8592 0.998615 43.8462L0.500147 43.8853ZM0.500147 56.8638L1.00015 56.864V56.8638H0.500147ZM0.834873 61.0695L1.32991 60.9987L1.32854 60.9902L0.834873 61.0695ZM3.28953 68.0131L3.72528 67.7676L3.71886 67.7569L3.28953 68.0131ZM5.38157 70.8358L5.02016 71.1813C5.02709 71.1885 5.03424 71.1956 5.04159 71.2024L5.38157 70.8358ZM19.1053 75.8318V75.3318C19.0967 75.3318 19.0881 75.332 19.0795 75.3325L19.1053 75.8318ZM44.6003 75.8318L44.6264 75.3325C44.6177 75.332 44.609 75.3318 44.6003 75.3318V75.8318ZM58.2962 70.8358L58.6368 71.2018C58.6431 71.1959 58.6492 71.1899 58.6552 71.1838L58.2962 70.8358ZM60.4161 68.0131L59.9873 67.7558L59.9819 67.7652L60.4161 68.0131ZM62.9266 61.0695L63.4207 61.1462L63.4215 61.1407L62.9266 61.0695ZM63.2334 56.8638L63.7334 56.8652V56.8638H63.2334ZM63.2334 40.1539L62.7336 40.139C62.7335 40.144 62.7334 40.149 62.7334 40.1539H63.2334ZM61.8666 30.7264L62.3416 30.5701L62.3395 30.5638L61.8666 30.7264ZM59.5793 26.6901L59.1964 27.0116L59.1971 27.0124L59.5793 26.6901ZM58.5472 25.6457L58.8732 25.2666C58.8686 25.2625 58.8638 25.2586 58.859 25.2548L58.5472 25.6457ZM47.1666 22.1456V22.6456C47.1796 22.6456 47.1926 22.6451 47.2056 22.6441L47.1666 22.1456ZM37.7627 22.1456L37.7529 22.6456H37.7627V22.1456ZM32.02 19.3243L31.613 19.6147C31.6189 19.6229 31.625 19.631 31.6314 19.6389L32.02 19.3243ZM28.9796 15.0622L29.3867 14.7718C29.382 14.7652 29.3771 14.7588 29.3722 14.7525L28.9796 15.0622ZM23.0661 12.2396V12.7396L23.074 12.7395L23.0661 12.2396ZM0.500003 43.8811L1 43.8862V43.8811H0.500003ZM0.000147313 43.8853V56.8638H1.00015V43.8853H0.000147313ZM0.000147343 56.8636C-0.000474662 58.299 0.113581 59.732 0.341204 61.1488L1.32854 60.9902C1.10937 59.626 0.999548 58.2461 1.00015 56.864L0.000147343 56.8636ZM0.339907 61.1403C0.700586 63.663 1.5575 66.0871 2.86021 68.2694L3.71886 67.7569C2.48425 65.6887 1.67182 63.3907 1.32984 60.9987L0.339907 61.1403ZM2.85392 68.2586C3.45224 69.3205 4.17998 70.3024 5.02016 71.1813L5.74298 70.4902C4.96059 69.6719 4.28266 68.7572 3.72515 67.7677L2.85392 68.2586ZM5.04159 71.2024C8.86883 74.7515 13.9443 76.5997 19.1312 76.3311L19.0795 75.3325C14.164 75.587 9.35197 73.8358 5.72155 70.4691L5.04159 71.2024ZM19.1053 76.3318H44.6003V75.3318H19.1053V76.3318ZM44.5742 76.3311C49.7534 76.6017 54.8213 74.7525 58.6368 71.2018L57.9556 70.4697C54.3372 73.8371 49.5334 75.5889 44.6264 75.3325L44.5742 76.3311ZM58.6552 71.1838C59.5055 70.3067 60.243 69.3247 60.8503 68.2611L59.9819 67.7652C59.4161 68.7562 58.729 69.6709 57.9372 70.4877L58.6552 71.1838ZM60.8449 68.2704C62.1544 66.0881 63.0294 63.6679 63.4207 61.1462L62.4325 60.9928C62.061 63.3872 61.2303 65.6847 59.9874 67.7559L60.8449 68.2704ZM63.4215 61.1407C63.6251 59.7248 63.7293 58.296 63.7334 56.8652L62.7334 56.8624C62.7295 58.2465 62.6286 59.6286 62.4317 60.9983L63.4215 61.1407ZM63.7334 56.8638V40.1539H62.7334V56.8638H63.7334ZM63.7332 40.1688C63.8303 36.9115 63.3592 33.6622 62.3416 30.5701L61.3917 30.8827C62.3729 33.8643 62.8272 36.9977 62.7336 40.139L63.7332 40.1688ZM62.3395 30.5638C61.8115 29.0281 61.0052 27.605 59.9615 26.3677L59.1971 27.0124C60.1608 28.155 60.9058 29.4696 61.3938 30.8889L62.3395 30.5638ZM59.9622 26.3685C59.6293 25.9721 59.2651 25.6035 58.8732 25.2666L58.2213 26.0248C58.5721 26.3265 58.8982 26.6565 59.1964 27.0116L59.9622 26.3685ZM58.859 25.2548C55.5358 22.6046 51.3478 21.3162 47.1275 21.6472L47.2056 22.6441C51.172 22.3331 55.1095 23.5437 58.2355 26.0366L58.859 25.2548ZM47.1666 21.6456H37.7627V22.6456H47.1666V21.6456ZM37.7726 21.6457C35.6942 21.6049 33.7321 20.6446 32.4087 19.0097L31.6314 19.6389C33.1391 21.5014 35.3777 22.5989 37.7529 22.6455L37.7726 21.6457ZM32.4271 19.034L29.3867 14.7718L28.5726 15.3525L31.613 19.6147L32.4271 19.034ZM29.3722 14.7525C27.8433 12.8148 25.5121 11.7011 23.0583 11.7396L23.074 12.7395C25.2135 12.7059 27.2496 13.6768 28.5871 15.3719L29.3722 14.7525ZM23.0661 11.7396H16.539V12.7396H23.0661V11.7396ZM16.539 11.7396C10.5782 11.7396 6.40103 13.5182 3.73373 16.8976C1.08594 20.2522 2.563e-06 25.0944 2.563e-06 31.0664H1C1 25.1834 2.07584 20.6121 4.51868 17.5171C6.942 14.4469 10.7843 12.7396 16.539 12.7396V11.7396ZM2.563e-06 31.0664V43.8811H1V31.0664H2.563e-06ZM2.92957e-05 43.8759C-0.000139207 43.8922 0.000421464 43.9084 0.00167918 43.9244L0.998615 43.8462C0.999651 43.8594 1.00012 43.8728 0.999976 43.8862L2.92957e-05 43.8759Z" fill="url(#paint1_linear_112_455)" mask="url(#path-3-outside-1_112_455)"/>
</g>
<g filter="url(#filter2_bd_112_455)">
<path d="M42.8661 37.5667L26.1863 53.7308C25.3189 54.545 24.1788 55 22.9892 55H17.1649C16.8427 55 16.5453 54.8803 16.3222 54.6647C16.0991 54.4492 16 54.1619 16 53.8506L16.1487 48.1752C16.1735 47.0497 16.6444 45.996 17.4623 45.2058L29.2844 33.7831C29.4826 33.5916 29.8296 33.5916 30.0279 33.7831L34.1668 37.7583C34.4395 38.0217 34.836 38.1894 35.2574 38.1894C36.1744 38.1894 36.8931 37.471 36.8931 36.6089C36.8931 36.1778 36.7196 35.7947 36.447 35.5073C36.3726 35.4115 32.432 31.6279 32.432 31.6279C32.1841 31.3885 32.1841 30.9814 32.432 30.7419L34.0925 29.1135C35.6291 27.6288 38.1075 27.6288 39.6442 29.1135L42.8661 32.2266C44.378 33.6874 44.378 36.082 42.8661 37.5667Z" fill="url(#paint2_linear_112_455)"/>
<path d="M32.5014 31.556L32.5019 31.5565L32.5041 31.5585L32.5125 31.5667L32.5455 31.5983L32.6707 31.7186L33.1181 32.1485C33.4888 32.5047 33.9837 32.9807 34.481 33.4597C34.9782 33.9386 35.4779 34.4207 35.8579 34.7889C36.0479 34.9731 36.2081 35.1289 36.3231 35.2417C36.3807 35.2981 36.4271 35.3439 36.4604 35.3773C36.4865 35.4034 36.5096 35.4268 36.5215 35.4406C36.809 35.7446 36.9931 36.151 36.9931 36.6089C36.9931 37.5284 36.2273 38.2894 35.2574 38.2894C34.8104 38.2894 34.3889 38.1119 34.0975 37.8304L34.0976 37.8304L34.1668 37.7583L34.0974 37.8302L32.5014 31.556ZM32.5014 31.556L32.5014 31.556L32.5013 31.5559C32.2943 31.3557 32.2943 31.0139 32.5014 30.8138L32.502 30.8133L34.162 29.1854C34.1621 29.1854 34.1621 29.1853 34.1622 29.1852C35.6601 27.7382 38.0769 27.7383 39.5747 29.1854L42.7966 32.2985C44.2675 33.7196 44.2683 36.0496 42.7961 37.4954L26.1179 53.6579C26.1177 53.6581 26.1175 53.6582 26.1173 53.6584L32.5014 31.556ZM16.1 53.8518C16.1 53.8514 16.1 53.851 16.1 53.8506H16L16.1 53.8532L16.1 53.8518Z" stroke="url(#paint3_linear_112_455)" stroke-opacity="0.5" stroke-width="0.2"/>
</g>
<g filter="url(#filter3_bd_112_455)">
<path d="M47.7305 61.8501H16.1547C14.722 61.8501 13.5605 60.6748 13.5605 59.2251C13.5605 57.7753 14.722 56.6 16.1547 56.6H47.9816C48.7542 56.6089 49.4776 56.9854 49.9341 57.6162C50.331 58.0856 50.5312 58.6932 50.492 59.3097C50.4703 60.0112 50.1719 60.6746 49.6636 61.1519C49.1552 61.6292 48.4791 61.8806 47.7863 61.8501H47.7305Z" fill="url(#paint4_linear_112_455)"/>
<path d="M49.7721 57.7334L49.7765 57.7395L49.7814 57.7453C50.1448 58.1751 50.3283 58.7318 50.2924 59.2971L50.2923 59.2971L50.2921 59.3036C50.272 59.9523 49.9961 60.5654 49.5267 61.0061C49.0574 61.4467 48.4337 61.6784 47.7951 61.6503L47.7951 61.6501H47.7863H47.7305H16.1547C14.8347 61.6501 13.7605 60.5666 13.7605 59.2251C13.7605 57.8835 14.8347 56.8 16.1547 56.8H47.9804C48.6887 56.8085 49.3526 57.1538 49.7721 57.7334Z" stroke="url(#paint5_linear_112_455)" stroke-width="0.4"/>
</g>
<defs>
<filter id="filter0_f_112_455" x="15.5986" y="0.400177" width="68.2852" height="71.5059" filterUnits="userSpaceOnUse" color-interpolation-filters="sRGB">
<feFlood flood-opacity="0" result="BackgroundImageFix"/>
<feBlend mode="normal" in="SourceGraphic" in2="BackgroundImageFix" result="shape"/>
<feGaussianBlur stdDeviation="7.5" result="effect1_foregroundBlur_112_455"/>
</filter>
<filter id="filter1_b_112_455" x="-15" y="-3.26135" width="93.7461" height="94.6185" filterUnits="userSpaceOnUse" color-interpolation-filters="sRGB">
<feFlood flood-opacity="0" result="BackgroundImageFix"/>
<feGaussianBlur in="BackgroundImage" stdDeviation="7.5"/>
<feComposite in2="SourceAlpha" operator="in" result="effect1_backgroundBlur_112_455"/>
<feBlend mode="normal" in="SourceGraphic" in2="effect1_backgroundBlur_112_455" result="shape"/>
</filter>
<filter id="filter2_bd_112_455" x="1" y="13" width="58" height="57" filterUnits="userSpaceOnUse" color-interpolation-filters="sRGB">
<feFlood flood-opacity="0" result="BackgroundImageFix"/>
<feGaussianBlur in="BackgroundImage" stdDeviation="7.5"/>
<feComposite in2="SourceAlpha" operator="in" result="effect1_backgroundBlur_112_455"/>
<feColorMatrix in="SourceAlpha" type="matrix" values="0 0 0 0 0 0 0 0 0 0 0 0 0 0 0 0 0 0 127 0" result="hardAlpha"/>
<feOffset dx="5" dy="5"/>
<feGaussianBlur stdDeviation="5"/>
<feColorMatrix type="matrix" values="0 0 0 0 1 0 0 0 0 1 0 0 0 0 1 0 0 0 0.5 0"/>
<feBlend mode="normal" in2="effect1_backgroundBlur_112_455" result="effect2_dropShadow_112_455"/>
<feBlend mode="normal" in="SourceGraphic" in2="effect2_dropShadow_112_455" result="shape"/>
</filter>
<filter id="filter3_bd_112_455" x="-1.43945" y="41.6" width="66.9365" height="35.2526" filterUnits="userSpaceOnUse" color-interpolation-filters="sRGB">
<feFlood flood-opacity="0" result="BackgroundImageFix"/>
<feGaussianBlur in="BackgroundImage" stdDeviation="7.5"/>
<feComposite in2="SourceAlpha" operator="in" result="effect1_backgroundBlur_112_455"/>
<feColorMatrix in="SourceAlpha" type="matrix" values="0 0 0 0 0 0 0 0 0 0 0 0 0 0 0 0 0 0 127 0" result="hardAlpha"/>
<feOffset dx="5" dy="5"/>
<feGaussianBlur stdDeviation="5"/>
<feColorMatrix type="matrix" values="0 0 0 0 0.87451 0 0 0 0 0.870588 0 0 0 0 0.835294 0 0 0 0.8 0"/>
<feBlend mode="normal" in2="effect1_backgroundBlur_112_455" result="effect2_dropShadow_112_455"/>
<feBlend mode="normal" in="SourceGraphic" in2="effect2_dropShadow_112_455" result="shape"/>
</filter>
<linearGradient id="paint0_linear_112_455" x1="80.5005" y1="15.8801" x2="32.0016" y2="45.1537" gradientUnits="userSpaceOnUse">
<stop stop-color="#F5FFEF"/>
<stop offset="1" stop-color="#C1C1C1"/>
</linearGradient>
<linearGradient id="paint1_linear_112_455" x1="10.4881" y1="19.6503" x2="51.1845" y2="69.3622" gradientUnits="userSpaceOnUse">
<stop stop-color="white" stop-opacity="0.25"/>
<stop offset="1" stop-color="white" stop-opacity="0"/>
</linearGradient>
<linearGradient id="paint2_linear_112_455" x1="42.0148" y1="32.8757" x2="10.828" y2="33.9301" gradientUnits="userSpaceOnUse">
<stop stop-color="white"/>
<stop offset="1" stop-color="white" stop-opacity="0.2"/>
</linearGradient>
<linearGradient id="paint3_linear_112_455" x1="19.0162" y1="37.0572" x2="42.792" y2="37.1933" gradientUnits="userSpaceOnUse">
<stop stop-color="white"/>
<stop offset="1" stop-color="white" stop-opacity="0"/>
</linearGradient>
<linearGradient id="paint4_linear_112_455" x1="47.8781" y1="57.5485" x2="8.74781" y2="66.5202" gradientUnits="userSpaceOnUse">
<stop stop-color="white"/>
<stop offset="1" stop-color="white" stop-opacity="0.2"/>
</linearGradient>
<linearGradient id="paint5_linear_112_455" x1="19.4402" y1="57.212" x2="20.217" y2="63.9778" gradientUnits="userSpaceOnUse">
<stop stop-color="white" stop-opacity="0.25"/>
<stop offset="1" stop-color="white" stop-opacity="0"/>
</linearGradient>
</defs>
</svg>
