<svg width="62" height="62" viewBox="0 0 62 62" fill="none" xmlns="http://www.w3.org/2000/svg">
<ellipse cx="30.9671" cy="31.3336" rx="26.2835" ry="26.4119" fill="#F2994A"/>
<path d="M60.8144 31.3337C60.8144 47.9017 47.4492 61.3296 30.9662 61.3296C14.4833 61.3296 1.11806 47.9017 1.11806 31.3337C1.11806 14.7657 14.4833 1.33779 30.9662 1.33779C47.4492 1.33779 60.8144 14.7657 60.8144 31.3337Z" stroke="#F2994A" stroke-width="0.75565"/>
<path d="M55.7467 31.3338C55.7467 45.0879 44.6513 56.2362 30.9664 56.2362C17.2814 56.2362 6.18598 45.0879 6.18598 31.3338C6.18598 17.5797 17.2814 6.43134 30.9664 6.43134C44.6513 6.43134 55.7467 17.5797 55.7467 31.3338Z" stroke="white" stroke-width="0.377825"/>
<path d="M24 24.3226V38.004C24 39.0472 25.1614 39.6811 26.0558 39.1133L36.9223 32.2726C37.7499 31.7575 37.7499 30.569 36.9223 30.0408L26.0558 23.2133C25.1614 22.6454 24 23.2793 24 24.3226Z" fill="white"/>
</svg>
