<svg width="21" height="20" viewBox="0 0 21 20" fill="none" xmlns="http://www.w3.org/2000/svg">
<g clip-path="url(#clip0_1543_1070)">
<path d="M18.5306 5.82004C19.3291 5.25302 20.0009 4.54526 20.5483 3.73032V3.7295C19.8176 4.04942 19.0403 4.26216 18.2286 4.36525C19.0632 3.86696 19.7006 3.08393 20.0001 2.14053C19.2219 2.60446 18.3628 2.93174 17.4472 3.11502C16.7084 2.3279 15.6553 1.84106 14.5066 1.84106C12.2778 1.84106 10.4834 3.65014 10.4834 5.8675C10.4834 6.1866 10.5104 6.49343 10.5767 6.78553C7.2302 6.62189 4.26826 5.01819 2.27837 2.57418C1.93145 3.17721 1.72689 3.86696 1.72689 4.60908C1.72689 6.00332 2.44447 7.23882 3.51551 7.95476C2.8683 7.94249 2.23418 7.7543 1.69662 7.45892V7.50311C1.69662 9.45946 3.09167 11.0844 4.92202 11.4592C4.59391 11.5492 4.23717 11.5917 3.86652 11.5917C3.60878 11.5917 3.34859 11.577 3.10476 11.523C3.62597 13.1169 5.10693 14.2894 6.86609 14.3278C5.4964 15.3989 3.75688 16.0444 1.87417 16.0444C1.54443 16.0444 1.22778 16.0297 0.911133 15.9896C2.69484 17.1392 4.80747 17.7962 7.08701 17.7962C14.1916 17.7962 18.8218 11.8691 18.5306 5.82004Z" fill="white"/>
</g>
<defs>
<clipPath id="clip0_1543_1070">
<rect width="19.6371" height="19.6371" fill="white" transform="translate(0.911133)"/>
</clipPath>
</defs>
</svg>
