<svg width="84" height="78" viewBox="0 0 84 78" fill="none" xmlns="http://www.w3.org/2000/svg">
<path d="M67.835 12.4575L45.7619 6.4486C37.7554 4.26903 31.8376 7.76284 29.6852 15.9239L22.3953 43.5644C20.2077 51.8592 23.6414 57.784 31.6479 59.9636L53.721 65.9725C61.8565 68.1872 67.6144 64.7646 69.8021 56.4698L77.092 28.8292C79.2443 20.6682 75.9705 14.6722 67.835 12.4575Z" fill="url(#paint0_linear_112_407)"/>
<g opacity="0.5" filter="url(#filter0_f_112_407)">
<path d="M62.1126 19.9678L47.0189 15.859C41.5441 14.3686 37.4975 16.7576 36.0257 22.3382L31.0408 41.2388C29.5449 46.9108 31.8929 50.9623 37.3678 52.4527L52.4614 56.5615C58.0245 58.076 61.9618 55.7356 63.4577 50.0635L68.4425 31.1629C69.9143 25.5824 67.6757 21.4823 62.1126 19.9678Z" fill="#F86652"/>
</g>
<g filter="url(#filter1_b_112_407)">
<mask id="path-3-outside-1_112_407" maskUnits="userSpaceOnUse" x="-0.5" y="11.2568" width="65" height="66" fill="black">
<rect fill="white" x="-0.5" y="11.2568" width="65" height="66"/>
<path fill-rule="evenodd" clip-rule="evenodd" d="M0.500175 43.9658V56.9694C0.499565 58.3809 0.611505 59.7902 0.834902 61.1834C1.18623 63.6455 2.0209 66.0112 3.28956 68.1406C3.86748 69.1684 4.57032 70.1185 5.3816 70.9688C9.11043 74.4334 14.0542 76.2367 19.1054 75.9746H44.6004C49.6434 76.2386 54.5793 74.4346 58.2962 70.9688C59.1173 70.1202 59.8296 69.1699 60.4162 68.1406C61.6924 66.0097 62.5452 63.6462 62.9266 61.1834C63.1269 59.7878 63.2294 58.3797 63.2334 56.9694V40.2268C63.3288 37.0211 62.8661 33.8236 61.8666 30.7808C61.3587 29.3003 60.583 27.9288 59.5793 26.7365C59.2638 26.36 58.9186 26.01 58.5473 25.6901C55.3227 23.1135 51.2599 21.8616 47.1666 22.1832H37.7623C35.5357 22.1392 33.4355 21.1083 32.02 19.3563L28.9796 15.0858C27.5465 13.2659 25.3628 12.2215 23.0661 12.2577H16.539C4.82355 12.2577 0.500003 19.2432 0.500003 31.1214V43.9612C0.499987 43.9628 0.500044 43.9643 0.500175 43.9658Z"/>
</mask>
<path fill-rule="evenodd" clip-rule="evenodd" d="M0.500175 43.9658V56.9694C0.499565 58.3809 0.611505 59.7902 0.834902 61.1834C1.18623 63.6455 2.0209 66.0112 3.28956 68.1406C3.86748 69.1684 4.57032 70.1185 5.3816 70.9688C9.11043 74.4334 14.0542 76.2367 19.1054 75.9746H44.6004C49.6434 76.2386 54.5793 74.4346 58.2962 70.9688C59.1173 70.1202 59.8296 69.1699 60.4162 68.1406C61.6924 66.0097 62.5452 63.6462 62.9266 61.1834C63.1269 59.7878 63.2294 58.3797 63.2334 56.9694V40.2268C63.3288 37.0211 62.8661 33.8236 61.8666 30.7808C61.3587 29.3003 60.583 27.9288 59.5793 26.7365C59.2638 26.36 58.9186 26.01 58.5473 25.6901C55.3227 23.1135 51.2599 21.8616 47.1666 22.1832H37.7623C35.5357 22.1392 33.4355 21.1083 32.02 19.3563L28.9796 15.0858C27.5465 13.2659 25.3628 12.2215 23.0661 12.2577H16.539C4.82355 12.2577 0.500003 19.2432 0.500003 31.1214V43.9612C0.499987 43.9628 0.500044 43.9643 0.500175 43.9658Z" fill="#FFDDDD" fill-opacity="0.4"/>
<path d="M0.500175 43.9658H1.00018C1.00018 43.9516 0.999568 43.9374 0.998356 43.9232L0.500175 43.9658ZM0.500175 56.9694L1.00018 56.9697V56.9694H0.500175ZM0.834902 61.1834L1.32996 61.1127L1.3286 61.1042L0.834902 61.1834ZM3.28956 68.1406L3.72552 67.8955L3.7191 67.8847L3.28956 68.1406ZM5.3816 70.9688L5.01985 71.3139C5.02677 71.3212 5.03391 71.3282 5.04126 71.3351L5.3816 70.9688ZM19.1054 75.9746V75.4746C19.0967 75.4746 19.0881 75.4748 19.0795 75.4753L19.1054 75.9746ZM44.6004 75.9746L44.6265 75.4753C44.6178 75.4748 44.6091 75.4746 44.6004 75.4746V75.9746ZM58.2962 70.9688L58.6372 71.3345C58.6435 71.3286 58.6496 71.3226 58.6556 71.3165L58.2962 70.9688ZM60.4162 68.1406L59.9871 67.8837L59.9817 67.8931L60.4162 68.1406ZM62.9266 61.1834L63.4207 61.2599L63.4215 61.2544L62.9266 61.1834ZM63.2334 56.9694L63.7334 56.9709V56.9694H63.2334ZM63.2334 40.2268L62.7337 40.2119C62.7335 40.2169 62.7334 40.2218 62.7334 40.2268H63.2334ZM61.8666 30.7808L62.3417 30.6247L62.3396 30.6185L61.8666 30.7808ZM59.5793 26.7365L59.1961 27.0577L59.1968 27.0585L59.5793 26.7365ZM58.5473 25.6901L58.8736 25.3113C58.869 25.3073 58.8642 25.3033 58.8594 25.2995L58.5473 25.6901ZM47.1666 22.1832V22.6832C47.1797 22.6832 47.1927 22.6827 47.2057 22.6817L47.1666 22.1832ZM37.7623 22.1832L37.7524 22.6832H37.7623V22.1832ZM32.02 19.3563L31.6127 19.6463C31.6186 19.6546 31.6247 19.6627 31.6311 19.6706L32.02 19.3563ZM28.9796 15.0858L29.3869 14.7958C29.3823 14.7893 29.3774 14.7828 29.3724 14.7765L28.9796 15.0858ZM23.0661 12.2577V12.7577L23.074 12.7576L23.0661 12.2577ZM0.500003 43.9612L1 43.9664V43.9612H0.500003ZM0.000175506 43.9658V56.9694H1.00018V43.9658H0.000175506ZM0.000175565 56.9692C-0.000446409 58.4073 0.113601 59.8431 0.341208 61.2625L1.3286 61.1042C1.10941 59.7373 0.999576 58.3546 1.00018 56.9697L0.000175565 56.9692ZM0.339916 61.254C0.700558 63.7814 1.55739 66.2101 2.86002 68.3965L3.7191 67.8847C2.48442 65.8123 1.67191 63.5096 1.32989 61.1127L0.339916 61.254ZM2.85374 68.3857C3.45201 69.4496 4.17971 70.4334 5.01985 71.3139L5.74335 70.6236C4.96093 69.8036 4.28294 68.8871 3.72538 67.8956L2.85374 68.3857ZM5.04126 71.3351C8.86845 74.8911 13.9441 76.7431 19.1313 76.4739L19.0795 75.4753C14.1643 75.7303 9.35241 73.9758 5.72194 70.6025L5.04126 71.3351ZM19.1054 76.4746H44.6004V75.4746H19.1054V76.4746ZM44.5742 76.4739C49.7537 76.7451 54.8218 74.8921 58.6372 71.3345L57.9552 70.6031C54.3368 73.9771 49.5332 75.7322 44.6265 75.4753L44.5742 76.4739ZM58.6556 71.3165C59.5059 70.4376 60.2433 69.4538 60.8506 68.3882L59.9817 67.8931C59.4158 68.8861 58.7288 69.8027 57.9369 70.6211L58.6556 71.3165ZM60.8451 68.3975C62.1546 66.211 63.0295 63.7863 63.4207 61.2599L62.4325 61.1069C62.0609 63.5062 61.2301 65.8083 59.9872 67.8837L60.8451 68.3975ZM63.4215 61.2544C63.6251 59.8358 63.7293 58.4044 63.7334 56.9709L62.7334 56.968C62.7295 58.355 62.6286 59.7399 62.4317 61.1123L63.4215 61.2544ZM63.7334 56.9694V40.2268H62.7334V56.9694H63.7334ZM63.7332 40.2417C63.8303 36.9781 63.3593 33.7227 62.3417 30.6247L61.3916 30.9368C62.373 33.9244 62.8273 37.0642 62.7337 40.2119L63.7332 40.2417ZM62.3396 30.6185C61.8117 29.0799 61.0054 27.6542 59.9619 26.4145L59.1968 27.0585C60.1606 28.2034 60.9057 29.5207 61.3937 30.943L62.3396 30.6185ZM59.9626 26.4154C59.6297 26.0181 59.2655 25.6489 58.8736 25.3113L58.2209 26.0689C58.5718 26.3712 58.8979 26.7018 59.1961 27.0577L59.9626 26.4154ZM58.8594 25.2995C55.5363 22.6441 51.348 21.3531 47.1274 21.6847L47.2057 22.6817C51.1718 22.37 55.1092 23.5829 58.2351 26.0807L58.8594 25.2995ZM47.1666 21.6832H37.7623V22.6832H47.1666V21.6832ZM37.7722 21.6833C35.6944 21.6422 33.7324 20.6802 32.409 19.0421L31.6311 19.6706C33.1385 21.5364 35.3771 22.6362 37.7524 22.6831L37.7722 21.6833ZM32.4274 19.0663L29.3869 14.7958L28.5723 15.3758L31.6127 19.6463L32.4274 19.0663ZM29.3724 14.7765C27.8437 12.8352 25.5125 11.7191 23.0583 11.7577L23.074 12.7576C25.2131 12.724 27.2492 13.6966 28.5868 15.3952L29.3724 14.7765ZM23.0661 11.7577H16.539V12.7577H23.0661V11.7577ZM16.539 11.7577C10.5779 11.7577 6.40062 13.54 3.73343 16.9258C1.08589 20.2868 2.563e-06 25.138 2.563e-06 31.1214H1C1 25.2266 2.07589 20.646 4.51898 17.5446C6.94242 14.4682 10.7846 12.7577 16.539 12.7577V11.7577ZM2.563e-06 31.1214V43.9612H1V31.1214H2.563e-06ZM2.92063e-05 43.9561C-0.0001522 43.9736 0.000513226 43.9911 0.00199491 44.0084L0.998356 43.9232C0.999576 43.9375 1.00013 43.9519 0.999976 43.9664L2.92063e-05 43.9561Z" fill="url(#paint1_linear_112_407)" mask="url(#path-3-outside-1_112_407)"/>
</g>
<g filter="url(#filter2_bd_112_407)">
<path d="M26.0003 49C29.6837 49 32.667 46.0167 32.667 42.3333C32.667 38.65 29.6837 35.6667 26.0003 35.6667C22.317 35.6667 19.3337 38.65 19.3337 42.3333C19.3337 46.0167 22.317 49 26.0003 49ZM26.0003 52.3333C21.5503 52.3333 12.667 54.5667 12.667 59V60.6667C12.667 61.5833 13.417 62.3333 14.3337 62.3333H37.667C38.5837 62.3333 39.3337 61.5833 39.3337 60.6667V59C39.3337 54.5667 30.4503 52.3333 26.0003 52.3333Z" fill="url(#paint2_linear_112_407)"/>
<path d="M32.467 42.3333C32.467 45.9062 29.5732 48.8 26.0003 48.8C22.4274 48.8 19.5337 45.9062 19.5337 42.3333C19.5337 38.7604 22.4274 35.8667 26.0003 35.8667C29.5732 35.8667 32.467 38.7604 32.467 42.3333ZM12.867 59C12.867 57.9651 13.3838 57.0438 14.2602 56.235C15.1379 55.4249 16.3629 54.7412 17.7393 54.1898C20.4923 53.087 23.8003 52.5333 26.0003 52.5333C28.2003 52.5333 31.5084 53.087 34.2614 54.1898C35.6377 54.7412 36.8627 55.4249 37.7405 56.235C38.6168 57.0438 39.1337 57.9651 39.1337 59V60.6667C39.1337 61.4729 38.4732 62.1333 37.667 62.1333H14.3337C13.5274 62.1333 12.867 61.4729 12.867 60.6667V59Z" stroke="url(#paint3_linear_112_407)" stroke-width="0.4"/>
</g>
<defs>
<filter id="filter0_f_112_407" x="15.5986" y="0.42453" width="68.2852" height="71.5873" filterUnits="userSpaceOnUse" color-interpolation-filters="sRGB">
<feFlood flood-opacity="0" result="BackgroundImageFix"/>
<feBlend mode="normal" in="SourceGraphic" in2="BackgroundImageFix" result="shape"/>
<feGaussianBlur stdDeviation="7.5" result="effect1_foregroundBlur_112_407"/>
</filter>
<filter id="filter1_b_112_407" x="-15" y="-3.24323" width="93.7461" height="94.7432" filterUnits="userSpaceOnUse" color-interpolation-filters="sRGB">
<feFlood flood-opacity="0" result="BackgroundImageFix"/>
<feGaussianBlur in="BackgroundImage" stdDeviation="7.5"/>
<feComposite in2="SourceAlpha" operator="in" result="effect1_backgroundBlur_112_407"/>
<feBlend mode="normal" in="SourceGraphic" in2="effect1_backgroundBlur_112_407" result="shape"/>
</filter>
<filter id="filter2_bd_112_407" x="-2.33301" y="20.6667" width="56.667" height="56.6667" filterUnits="userSpaceOnUse" color-interpolation-filters="sRGB">
<feFlood flood-opacity="0" result="BackgroundImageFix"/>
<feGaussianBlur in="BackgroundImage" stdDeviation="7.5"/>
<feComposite in2="SourceAlpha" operator="in" result="effect1_backgroundBlur_112_407"/>
<feColorMatrix in="SourceAlpha" type="matrix" values="0 0 0 0 0 0 0 0 0 0 0 0 0 0 0 0 0 0 127 0" result="hardAlpha"/>
<feOffset dx="5" dy="5"/>
<feGaussianBlur stdDeviation="5"/>
<feColorMatrix type="matrix" values="0 0 0 0 0.976471 0 0 0 0 0.435294 0 0 0 0 0.352941 0 0 0 0.5 0"/>
<feBlend mode="normal" in2="effect1_backgroundBlur_112_407" result="effect2_dropShadow_112_407"/>
<feBlend mode="normal" in="SourceGraphic" in2="effect2_dropShadow_112_407" result="shape"/>
</filter>
<linearGradient id="paint0_linear_112_407" x1="34.3343" y1="19.0097" x2="56.0343" y2="95.4147" gradientUnits="userSpaceOnUse">
<stop stop-color="#FFA78F"/>
<stop offset="1" stop-color="#F23E2C"/>
</linearGradient>
<linearGradient id="paint1_linear_112_407" x1="10.4881" y1="19.6829" x2="51.28" y2="69.414" gradientUnits="userSpaceOnUse">
<stop stop-color="white" stop-opacity="0.25"/>
<stop offset="1" stop-color="white" stop-opacity="0"/>
</linearGradient>
<linearGradient id="paint2_linear_112_407" x1="37.443" y1="40.4821" x2="7.73888" y2="41.4506" gradientUnits="userSpaceOnUse">
<stop stop-color="white"/>
<stop offset="1" stop-color="white" stop-opacity="0.2"/>
</linearGradient>
<linearGradient id="paint3_linear_112_407" x1="16.9119" y1="38.7734" x2="33.9224" y2="59.8413" gradientUnits="userSpaceOnUse">
<stop stop-color="white" stop-opacity="0.25"/>
<stop offset="1" stop-color="white" stop-opacity="0"/>
</linearGradient>
</defs>
</svg>
