<svg width="30" height="22" viewBox="0 0 30 22" fill="none" xmlns="http://www.w3.org/2000/svg">
<path fill-rule="evenodd" clip-rule="evenodd" d="M4.67726 1.22736C2.64409 1.32636 1.01088 2.8909 0.878936 4.88726C0.75252 6.79992 0.62793 9.15338 0.62793 11C0.62793 12.8466 0.75252 15.2001 0.878936 17.1127C1.01088 19.1091 2.64409 20.6736 4.67726 20.7726C7.62142 20.916 11.8295 21.0888 15.0001 21.0888C18.1708 21.0888 22.3788 20.916 25.323 20.7726C27.3562 20.6736 28.9894 19.1091 29.1213 17.1127C29.2477 15.2001 29.3723 12.8466 29.3723 11C29.3723 9.15338 29.2477 6.79992 29.1213 4.88726C28.9894 2.8909 27.3562 1.32636 25.323 1.22736C22.3788 1.08402 18.1708 0.911133 15.0001 0.911133C11.8295 0.911133 7.62142 1.08402 4.67726 1.22736ZM20.1331 10.9995L11.9204 15.0351V6.96399L20.1331 10.9995Z" fill="white"/>
</svg>
