<svg width="16" height="16" viewBox="0 0 16 16" fill="none" xmlns="http://www.w3.org/2000/svg">
<path d="M8.37112 1.68987C4.56487 1.42112 1.42112 4.56487 1.68987 8.37112C1.91487 11.6774 4.80237 14.1711 8.11487 14.1711H10.4211C10.7649 14.1711 11.0461 13.8899 11.0461 13.5461C11.0461 13.2024 10.7649 12.9211 10.4211 12.9211H8.12737C5.79612 12.9211 3.65862 11.4086 3.07737 9.15237C2.14612 5.52737 5.52112 2.14612 9.14612 3.08362C11.4086 3.65862 12.9211 5.79612 12.9211 8.12737V8.81487C12.9211 9.30862 12.4774 9.79612 11.9836 9.79612C11.4899 9.79612 11.0461 9.30862 11.0461 8.81487V8.03362C11.0461 6.46487 9.93362 5.05237 8.38362 4.83362C6.25862 4.52737 4.46487 6.36487 4.84612 8.50237C5.05862 9.69612 5.98987 10.6836 7.17112 10.9649C8.32112 11.2336 9.41487 10.8649 10.1336 10.1336C10.6899 10.8961 11.8024 11.2961 12.8211 10.8899C13.6586 10.5586 14.1711 9.70237 14.1711 8.80237V8.12112C14.1711 4.80237 11.6774 1.91487 8.37112 1.68987ZM7.92112 9.79612C6.88362 9.79612 6.04612 8.95862 6.04612 7.92112C6.04612 6.88362 6.88362 6.04612 7.92112 6.04612C8.95862 6.04612 9.79612 6.88362 9.79612 7.92112C9.79612 8.95862 8.95862 9.79612 7.92112 9.79612Z" fill="#F5FAF9"/>
</svg>
