<svg width="24" height="24" viewBox="0 0 24 24" fill="none" xmlns="http://www.w3.org/2000/svg">
<path d="M10.7984 2.40002C10.1619 2.40002 9.55147 2.65288 9.10138 3.10297C8.65129 3.55306 8.39844 4.1635 8.39844 4.80002V14.4C8.39844 15.0365 8.65129 15.647 9.10138 16.0971C9.55147 16.5472 10.1619 16.8 10.7984 16.8H17.9984C18.635 16.8 19.2454 16.5472 19.6955 16.0971C20.1456 15.647 20.3984 15.0365 20.3984 14.4V7.69682C20.3983 7.06036 20.1454 6.45001 19.6952 6.00002L16.7984 3.10322C16.3485 2.65311 15.7381 2.40016 15.1016 2.40002H10.7984Z" fill="#08457E"/>
<path d="M3.60156 9.59995C3.60156 8.96343 3.85442 8.35298 4.30451 7.90289C4.75459 7.45281 5.36504 7.19995 6.00156 7.19995V19.1999H15.6016C15.6016 19.8365 15.3487 20.4469 14.8986 20.897C14.4485 21.3471 13.8381 21.5999 13.2016 21.5999H6.00156C5.36504 21.5999 4.75459 21.3471 4.30451 20.897C3.85442 20.4469 3.60156 19.8365 3.60156 19.1999V9.59995Z" fill="#08457E"/>
</svg>
