<svg width="20" height="20" viewBox="0 0 20 20" fill="none" xmlns="http://www.w3.org/2000/svg">
<path d="M11.7678 11.7678C12.2366 11.2989 12.5 10.663 12.5 10C12.5 9.33696 12.2366 8.70107 11.7678 8.23223C11.2989 7.76339 10.663 7.5 10 7.5C9.33696 7.5 8.70107 7.76339 8.23223 8.23223C7.76339 8.70107 7.5 9.33696 7.5 10C7.5 10.663 7.76339 11.2989 8.23223 11.7678C8.70107 12.2366 9.33696 12.5 10 12.5C10.663 12.5 11.2989 12.2366 11.7678 11.7678Z" stroke="#8F8F8F" stroke-linecap="round" stroke-linejoin="round"/>
<path d="M2.04883 9.99996C3.11049 6.61913 6.26966 4.16663 10.0005 4.16663C13.7322 4.16663 16.8905 6.61913 17.9522 9.99996C16.8905 13.3808 13.7322 15.8333 10.0005 15.8333C6.26966 15.8333 3.11049 13.3808 2.04883 9.99996Z" stroke="#8F8F8F" stroke-linecap="round" stroke-linejoin="round"/>
</svg>
