<svg width="24" height="24" viewBox="0 0 24 24" fill="none" xmlns="http://www.w3.org/2000/svg">
<path d="M16.7232 1.71851L14.0506 1.71423C11.0479 1.71423 9.1075 3.70133 9.1075 6.77689V9.11111H6.42025C6.18804 9.11111 6 9.29901 6 9.53079V12.9128C6 13.1446 6.18826 13.3323 6.42025 13.3323H9.1075V21.8662C9.1075 22.098 9.29554 22.2857 9.52775 22.2857H13.0338C13.266 22.2857 13.4541 22.0978 13.4541 21.8662V13.3323H16.5961C16.8283 13.3323 17.0164 13.1446 17.0164 12.9128L17.0176 9.53079C17.0176 9.4195 16.9733 9.31293 16.8946 9.23417C16.8159 9.15541 16.7087 9.11111 16.5972 9.11111H13.4541V7.13236C13.4541 6.18129 13.6811 5.69849 14.9224 5.69849L16.7228 5.69784C16.9548 5.69784 17.1429 5.50994 17.1429 5.27838V2.13798C17.1429 1.90663 16.955 1.71894 16.7232 1.71851Z" fill="#4267B2"/>
</svg>
