<svg width="24" height="24" viewBox="0 0 24 24" fill="none" xmlns="http://www.w3.org/2000/svg">
<path fill-rule="evenodd" clip-rule="evenodd" d="M2 12C2 7.80863 2 5.71294 3.05041 4.26718C3.38964 3.80026 3.80026 3.38964 4.26718 3.05041C5.71294 2 7.77529 2 11.9 2H12.1C16.2247 2 18.2871 2 19.7328 3.05041C20.1997 3.38964 20.6104 3.80026 20.9496 4.26718C22 5.71294 22 7.80863 22 12C22 16.1914 22 18.2871 20.9496 19.7328C20.6104 20.1997 20.1997 20.6104 19.7328 20.9496C18.2871 22 16.2247 22 12.1 22H11.9C7.77529 22 5.71294 22 4.26718 20.9496C3.80026 20.6104 3.38964 20.1997 3.05041 19.7328C2 18.2871 2 16.1914 2 12ZM12 6.70588C9.07632 6.70588 6.70588 9.07632 6.70588 12C6.70588 14.9237 9.07632 17.2941 12 17.2941C14.9237 17.2941 17.2941 14.9237 17.2941 12C17.2941 9.07632 14.9237 6.70588 12 6.70588ZM12 15.3088C10.1762 15.3088 8.69118 13.8238 8.69118 12C8.69118 10.1748 10.1762 8.69117 12 8.69117C13.8238 8.69117 15.3088 10.1748 15.3088 12C15.3088 13.8238 13.8238 15.3088 12 15.3088ZM18.3966 6.30883C18.3966 6.69843 18.0808 7.01427 17.6912 7.01427C17.3016 7.01427 16.9857 6.69843 16.9857 6.30883C16.9857 5.91922 17.3016 5.60339 17.6912 5.60339C18.0808 5.60339 18.3966 5.91922 18.3966 6.30883Z" fill="url(#paint0_linear_289_6876)"/>
<defs>
<linearGradient id="paint0_linear_289_6876" x1="6.25" y1="19.75" x2="19.5" y2="6" gradientUnits="userSpaceOnUse">
<stop stop-color="#EEA054"/>
<stop offset="0.502762" stop-color="#D64763"/>
<stop offset="1" stop-color="#B62A99"/>
</linearGradient>
</defs>
</svg>
