<svg width="16" height="16" viewBox="0 0 16 16" fill="none" xmlns="http://www.w3.org/2000/svg">
<path d="M12.4398 9.95862L10.8523 9.77737C10.471 9.73362 10.096 9.86487 9.8273 10.1336L8.6773 11.2836C6.90855 10.3836 5.45855 8.93987 4.55855 7.16487L5.7148 6.00862C5.98355 5.73987 6.1148 5.36487 6.07105 4.98362L5.8898 3.40862C5.8148 2.77737 5.28355 2.30237 4.64605 2.30237H3.5648C2.85855 2.30237 2.27105 2.88987 2.3148 3.59612C2.64605 8.93362 6.9148 13.1961 12.246 13.5274C12.9523 13.5711 13.5398 12.9836 13.5398 12.2774V11.1961C13.546 10.5649 13.071 10.0336 12.4398 9.95862Z" fill="#F5FAF9"/>
</svg>
