<svg width="30" height="30" viewBox="0 0 30 30" fill="none" xmlns="http://www.w3.org/2000/svg">
<g clip-path="url(#clip0)">
<path d="M15 29.9995C23.2843 29.9995 30 23.2838 30 14.9995C30 6.71524 23.2843 -0.000488281 15 -0.000488281C6.71573 -0.000488281 0 6.71524 0 14.9995C0 23.2838 6.71573 29.9995 15 29.9995Z" fill="#F0F0F0"/>
<path d="M29.067 20.217C29.67 18.592 30 16.8344 30 14.9996C30 13.1648 29.67 11.4072 29.067 9.78223H0.932988C0.330059 11.4072 0 13.1648 0 14.9996C0 16.8344 0.330059 18.592 0.932988 20.217L15 21.5213L29.067 20.217Z" fill="#4456FB"/>
<path d="M15.0001 29.9994C21.4496 29.9994 26.9477 25.9288 29.0671 20.2168H0.933105C3.0525 25.9288 8.55064 29.9994 15.0001 29.9994Z" fill="#D80027"/>
</g>
<defs>
<clipPath id="clip0">
<rect width="30" height="30" fill="white" transform="translate(0 -0.000488281)"/>
</clipPath>
</defs>
</svg>
