<svg width="24" height="24" viewBox="0 0 24 24" fill="none" xmlns="http://www.w3.org/2000/svg">
<path d="M18.0017 9.10003H18.0017C17.164 9.10003 16.4065 8.7697 15.8508 8.23251L15.5963 7.98652L15.2797 8.14481L9.35167 11.1088L9.03586 11.2667L9.07902 11.6171C9.11034 11.8714 9.11034 12.1286 9.07902 12.3829L9.03586 12.7333L9.35167 12.8912L15.2797 15.8552L15.5958 16.0133L15.8503 15.768C16.3768 15.2605 17.0657 14.9555 17.7953 14.9068C18.525 14.8582 19.2483 15.069 19.8376 15.5021C20.4268 15.9352 20.8439 16.5626 21.0153 17.2735C21.1867 17.9844 21.1012 18.733 20.7741 19.3869C20.4469 20.0409 19.8991 20.5582 19.2274 20.8473C18.5557 21.1365 17.8035 21.1789 17.1036 20.967C16.4037 20.7552 15.8012 20.3027 15.4026 19.6896C15.004 19.0765 14.835 18.3423 14.9254 17.6167L14.9692 17.2658L14.6529 17.1076L8.72488 14.1436L8.40868 13.9855L8.1542 14.2309C7.71631 14.6532 7.16385 14.9373 6.56565 15.0478C5.96745 15.1584 5.34995 15.0905 4.79006 14.8526C4.23018 14.6147 3.75266 14.2173 3.41699 13.71C3.08133 13.2026 2.90234 12.6078 2.90234 11.9994C2.90234 11.3911 3.08133 10.7962 3.41699 10.2889C3.75266 9.78155 4.23018 9.38418 4.79006 9.14629C5.34995 8.9084 5.96745 8.8405 6.56565 8.95104C7.16385 9.06158 7.71631 9.34567 8.1542 9.76794L8.40868 10.0133L8.72488 9.85524L14.6529 6.89124L14.9691 6.73315L14.9255 6.38236C14.8478 5.75771 14.9622 5.12422 15.2533 4.56615C15.5445 4.00807 15.9986 3.55185 16.5554 3.25815C17.1121 2.96446 17.7451 2.8472 18.3701 2.92198C18.9951 2.99676 19.5825 3.26003 20.0542 3.67678C20.526 4.09353 20.8597 4.64402 21.0109 5.25503C21.1622 5.86604 21.1239 6.50862 20.9011 7.09733C20.6783 7.68604 20.2815 8.19297 19.7636 8.55071C19.2457 8.90845 18.6311 9.10005 18.0017 9.10003Z" fill="white" stroke="white"/>
</svg>
