<svg width="24" height="24" viewBox="0 0 24 24" fill="none" xmlns="http://www.w3.org/2000/svg">
<path d="M22.284 5.45686C21.4953 5.80105 20.6491 6.03447 19.7599 6.13868C20.6678 5.60324 21.3628 4.75396 21.6922 3.74509C20.8405 4.24094 19.9005 4.60099 18.8989 4.79617C18.0968 3.95348 16.956 3.42859 15.6906 3.42859C13.2629 3.42859 11.2945 5.3672 11.2945 7.75683C11.2945 8.09574 11.3334 8.42676 11.4084 8.74329C7.75548 8.56259 4.51636 6.83896 2.34847 4.21983C1.96951 4.85814 1.75393 5.6019 1.75393 6.39583C1.75393 7.89794 2.53058 9.22332 3.70894 9.99873C2.98853 9.97501 2.31097 9.77983 1.71779 9.4554V9.50947C1.71779 11.6063 3.23359 13.3563 5.24347 13.7546C4.87522 13.8522 4.48692 13.9063 4.0852 13.9063C3.80134 13.9063 3.52683 13.8786 3.25768 13.8258C3.81738 15.5469 5.44031 16.7984 7.36318 16.8327C5.85943 17.9932 3.96335 18.6829 1.90393 18.6829C1.5491 18.6829 1.19959 18.6618 0.855469 18.6236C2.8011 19.854 5.11094 20.5714 7.5935 20.5714C15.6799 20.5714 20.1001 13.9749 20.1001 8.25403L20.0854 7.69355C20.949 7.08687 21.6962 6.32462 22.284 5.45686Z" fill="#1DA1F2"/>
</svg>
