<svg width="30" height="30" viewBox="0 0 30 30" fill="none" xmlns="http://www.w3.org/2000/svg">
<g clip-path="url(#clip0)">
<path d="M0.708281 10.4348C0.248789 11.8743 -5.85834e-05 13.4079 1.0345e-08 14.9998C-5.85834e-05 16.5918 0.248848 18.1255 0.70834 19.5651L15 20.2173L29.2917 19.5652C29.7511 18.1256 30.0001 16.5918 30.0001 15C30 13.408 29.7512 11.8743 29.2917 10.4347L15 9.78259L0.708281 10.4348Z" fill="#F0F0F0"/>
<path d="M29.2916 10.4348L15 9.78265L0.708247 10.4348C0.572075 10.8616 0.454829 11.2968 0.356567 11.7392H29.6431C29.545 11.2967 29.4278 10.8615 29.2916 10.4348Z" fill="#D80027"/>
<path d="M0.356689 18.2608C0.454834 18.7032 0.57208 19.1383 0.708252 19.5651L0.709658 19.5652L14.9999 20.2173L29.2915 19.5652C29.4277 19.1384 29.5449 18.7032 29.6431 18.2608H0.356689Z" fill="#D80027"/>
<path d="M15 30C21.6923 30 27.3601 25.617 29.2916 19.5652H0.708374C2.63992 25.6169 8.30781 30 15 30V30Z" fill="#6DA544"/>
<path d="M14.9999 0.000976563C8.30769 0.00103516 2.63991 4.38402 0.708252 10.4358L29.2915 10.4358C27.3601 4.38396 21.6923 0.000917969 14.9999 0.000976563V0.000976563Z" fill="#338AF3"/>
<path d="M6.85457 6.19571C6.85457 4.79081 7.84193 3.61718 9.16047 3.32925C8.95785 3.28495 8.74756 3.26099 8.53158 3.26099C6.91076 3.26099 5.5968 4.57489 5.5968 6.19577C5.5968 7.81664 6.91065 9.13055 8.53158 9.13055C8.74756 9.13055 8.95779 9.10653 9.16047 9.06229C7.84199 8.77424 6.85457 7.60061 6.85457 6.19571V6.19571Z" fill="#F0F0F0"/>
<path d="M10.895 7.52972L11.0936 8.14115H11.7365L11.2164 8.51908L11.4151 9.13051L10.895 8.75263L10.3748 9.13051L10.5735 8.51908L10.0533 8.14115H10.6962L10.895 7.52972Z" fill="#F0F0F0"/>
<path d="M12.947 7.52972L13.1457 8.14115H13.7886L13.2684 8.51908L13.4671 9.13051L12.947 8.75263L12.4269 9.13051L12.6255 8.51908L12.1055 8.14115H12.7483L12.947 7.52972Z" fill="#F0F0F0"/>
<path d="M14.999 7.52972L15.1976 8.14115H15.8406L15.3204 8.51908L15.5191 9.13051L14.999 8.75263L14.4788 9.13051L14.6775 8.51908L14.1573 8.14115H14.8003L14.999 7.52972Z" fill="#F0F0F0"/>
<path d="M17.051 7.52972L17.2497 8.14115H17.8925L17.3724 8.51908L17.5711 9.13051L17.051 8.75263L16.5308 9.13051L16.7295 8.51908L16.2094 8.14115H16.8522L17.051 7.52972Z" fill="#F0F0F0"/>
<path d="M19.103 7.52972L19.3017 8.14115H19.9446L19.4245 8.51908L19.6232 9.13051L19.103 8.75263L18.5829 9.13051L18.7816 8.51908L18.2615 8.14115H18.9043L19.103 7.52972Z" fill="#F0F0F0"/>
<path d="M12.947 5.39532L13.1457 6.00669H13.7886L13.2684 6.38468L13.4671 6.99605L12.947 6.61818L12.4269 6.99605L12.6255 6.38468L12.1055 6.00669H12.7483L12.947 5.39532Z" fill="#F0F0F0"/>
<path d="M14.999 5.39532L15.1976 6.00669H15.8406L15.3204 6.38468L15.5191 6.99605L14.999 6.61818L14.4788 6.99605L14.6775 6.38468L14.1573 6.00669H14.8003L14.999 5.39532Z" fill="#F0F0F0"/>
<path d="M17.051 5.39532L17.2497 6.00669H17.8925L17.3724 6.38468L17.5711 6.99605L17.051 6.61818L16.5308 6.99605L16.7295 6.38468L16.2094 6.00669H16.8522L17.051 5.39532Z" fill="#F0F0F0"/>
<path d="M19.103 5.39532L19.3017 6.00669H19.9446L19.4245 6.38468L19.6232 6.99605L19.103 6.61818L18.5829 6.99605L18.7816 6.38468L18.2615 6.00669H18.9043L19.103 5.39532Z" fill="#F0F0F0"/>
<path d="M14.999 3.26086L15.1976 3.87235H15.8406L15.3204 4.25022L15.5191 4.8617L14.999 4.48383L14.4788 4.8617L14.6775 4.25022L14.1573 3.87235H14.8003L14.999 3.26086Z" fill="#F0F0F0"/>
<path d="M17.051 3.26086L17.2497 3.87235H17.8925L17.3724 4.25022L17.5711 4.8617L17.051 4.48383L16.5308 4.8617L16.7295 4.25022L16.2094 3.87235H16.8522L17.051 3.26086Z" fill="#F0F0F0"/>
<path d="M19.103 3.26086L19.3017 3.87235H19.9446L19.4245 4.25022L19.6232 4.8617L19.103 4.48383L18.5829 4.8617L18.7816 4.25022L18.2615 3.87235H18.9043L19.103 3.26086Z" fill="#F0F0F0"/>
</g>
<defs>
<clipPath id="clip0">
<rect width="30" height="30" fill="white"/>
</clipPath>
</defs>
</svg>
