<svg width="28" height="28" viewBox="0 0 28 28" fill="none" xmlns="http://www.w3.org/2000/svg">
<path d="M28 12.191H26.4985C25.7403 9.94032 23.6141 8.31274 21.1111 8.31274C18.5503 8.31274 16.3811 10.0149 15.671 12.3466C15.2218 12.0497 14.6458 11.8658 13.9997 11.8658C13.3537 11.8658 12.7778 12.0496 12.3286 12.3465C11.6183 10.0148 9.44878 8.3128 6.88804 8.3128C4.38501 8.3128 2.25895 9.94038 1.50091 12.1911H0V13.3577H1.2397C1.21582 13.569 1.20083 13.7828 1.20083 14.0003C1.20083 17.1363 3.75209 19.6872 6.88804 19.6872C10.024 19.6872 12.5755 17.1363 12.5755 14.0003C12.5755 13.9676 12.5712 13.936 12.5706 13.9035H12.5747C12.5747 13.4916 13.1601 13.0324 13.9997 13.0324C14.8397 13.0324 15.4247 13.4916 15.4247 13.9035H15.4291C15.4285 13.936 15.4242 13.9676 15.4242 14.0003C15.4242 17.1363 17.9751 19.6872 21.1111 19.6872C24.247 19.6872 26.7986 17.1363 26.7986 14.0003C26.7986 13.7828 26.7836 13.569 26.7597 13.3577H28V12.191ZM6.88804 18.5206C4.39549 18.5206 2.36748 16.4926 2.36748 14.0003C2.36748 11.5075 4.39549 9.47946 6.88804 9.47946C9.38089 9.47946 11.4089 11.5075 11.4089 14.0003C11.4089 16.4926 9.38089 18.5206 6.88804 18.5206ZM21.1111 18.5206C18.6189 18.5206 16.5909 16.4926 16.5909 14.0003C16.5909 11.5075 18.6189 9.47946 21.1111 9.47946C23.604 9.47946 25.632 11.5075 25.632 14.0003C25.6319 16.4926 23.6039 18.5206 21.1111 18.5206Z" fill="#4F4F4F"/>
</svg>
