<svg width="28" height="28" viewBox="0 0 28 28" fill="none" xmlns="http://www.w3.org/2000/svg">
<path d="M20.2432 27.2431H7.75668C7.35527 27.2431 6.9703 27.0836 6.68646 26.7998C6.40262 26.5159 6.24316 26.131 6.24316 25.7296V2.27011C6.24316 1.8687 6.40262 1.48373 6.68646 1.19989C6.9703 0.916051 7.35527 0.756592 7.75668 0.756592H20.2432C20.6446 0.756592 21.0295 0.916051 21.3134 1.19989C21.5972 1.48373 21.7567 1.8687 21.7567 2.27011V25.7296C21.7567 26.131 21.5972 26.5159 21.3134 26.7998C21.0295 27.0836 20.6446 27.2431 20.2432 27.2431ZM7.75668 1.51335C7.55597 1.51335 7.36349 1.59308 7.22157 1.735C7.07965 1.87692 6.99992 2.0694 6.99992 2.27011V25.7296C6.99992 25.9303 7.07965 26.1228 7.22157 26.2647C7.36349 26.4066 7.55597 26.4863 7.75668 26.4863H20.2432C20.4439 26.4863 20.6364 26.4066 20.7783 26.2647C20.9202 26.1228 20.9999 25.9303 20.9999 25.7296V2.27011C20.9999 2.0694 20.9202 1.87692 20.7783 1.735C20.6364 1.59308 20.4439 1.51335 20.2432 1.51335H7.75668Z" fill="#4F4F4F"/>
<path d="M21.3783 4.91887H6.62154C6.52119 4.91887 6.42495 4.879 6.35399 4.80804C6.28303 4.73708 6.24316 4.64084 6.24316 4.54049C6.24316 4.44014 6.28303 4.34389 6.35399 4.27293C6.42495 4.20197 6.52119 4.16211 6.62154 4.16211H21.3783C21.4787 4.16211 21.5749 4.20197 21.6459 4.27293C21.7168 4.34389 21.7567 4.44014 21.7567 4.54049C21.7567 4.64084 21.7168 4.73708 21.6459 4.80804C21.5749 4.879 21.4787 4.91887 21.3783 4.91887Z" fill="#4F4F4F"/>
<path d="M21.3783 22.3244H6.62154C6.52119 22.3244 6.42495 22.2845 6.35399 22.2136C6.28303 22.1426 6.24316 22.0464 6.24316 21.946C6.24316 21.8457 6.28303 21.7494 6.35399 21.6785C6.42495 21.6075 6.52119 21.5676 6.62154 21.5676H21.3783C21.4787 21.5676 21.5749 21.6075 21.6459 21.6785C21.7168 21.7494 21.7567 21.8457 21.7567 21.946C21.7567 22.0464 21.7168 22.1426 21.6459 22.2136C21.5749 22.2845 21.4787 22.3244 21.3783 22.3244Z" fill="#4F4F4F"/>
<path d="M14 25.8009C13.724 25.8009 13.4542 25.7191 13.2247 25.5657C12.9952 25.4124 12.8163 25.1945 12.7107 24.9395C12.6051 24.6845 12.5775 24.4039 12.6313 24.1332C12.6852 23.8625 12.8181 23.6139 13.0132 23.4187C13.2084 23.2236 13.457 23.0907 13.7277 23.0368C13.9984 22.983 14.279 23.0106 14.534 23.1162C14.789 23.2219 15.0069 23.4007 15.1602 23.6302C15.3136 23.8597 15.3954 24.1295 15.3954 24.4055C15.395 24.7754 15.2479 25.1302 14.9862 25.3918C14.7246 25.6534 14.3699 25.8005 14 25.8009ZM14 23.7671C13.8736 23.7671 13.7501 23.8046 13.6451 23.8748C13.54 23.945 13.4582 24.0448 13.4098 24.1615C13.3615 24.2782 13.3489 24.4067 13.3736 24.5306C13.3982 24.6545 13.4591 24.7683 13.5485 24.8576C13.6378 24.9469 13.7517 25.0077 13.8756 25.0323C13.9995 25.0569 14.1279 25.0442 14.2446 24.9958C14.3613 24.9474 14.4611 24.8655 14.5312 24.7604C14.6013 24.6553 14.6387 24.5318 14.6387 24.4055C14.6385 24.2362 14.5711 24.0739 14.4513 23.9542C14.3316 23.8345 14.1693 23.7672 14 23.7671Z" fill="#4F4F4F"/>
<path d="M15.5138 3.31096H12.4868C12.3864 3.31096 12.2902 3.27109 12.2192 3.20013C12.1483 3.12917 12.1084 3.03293 12.1084 2.93258C12.1084 2.83223 12.1483 2.73598 12.2192 2.66502C12.2902 2.59406 12.3864 2.5542 12.4868 2.5542H15.5138C15.6141 2.5542 15.7104 2.59406 15.7813 2.66502C15.8523 2.73598 15.8922 2.83223 15.8922 2.93258C15.8922 3.03293 15.8523 3.12917 15.7813 3.20013C15.7104 3.27109 15.6141 3.31096 15.5138 3.31096Z" fill="#4F4F4F"/>
</svg>
