<svg width="28" height="28" viewBox="0 0 28 28" fill="none" xmlns="http://www.w3.org/2000/svg">
<path d="M16.3337 16.9167H11.667C9.34711 16.9192 7.12294 17.8419 5.48254 19.4823C3.84213 21.1227 2.91946 23.3468 2.91699 25.6667C2.91699 25.8214 2.97845 25.9698 3.08785 26.0792C3.19724 26.1886 3.34562 26.2501 3.50033 26.2501H24.5003C24.655 26.2501 24.8034 26.1886 24.9128 26.0792C25.0222 25.9698 25.0837 25.8214 25.0837 25.6667C25.0812 23.3468 24.1585 21.1227 22.5181 19.4823C20.8777 17.8419 18.6535 16.9192 16.3337 16.9167ZM4.10583 25.0834C4.25489 23.1796 5.1159 21.4018 6.51724 20.1045C7.91857 18.8071 9.75732 18.0855 11.667 18.0834H16.3337C18.2433 18.0855 20.0821 18.8071 21.4834 20.1045C22.8848 21.4018 23.7458 23.1796 23.8948 25.0834H4.10583Z" fill="#4F4F4F"/>
<path d="M13.9997 14.5833C15.2688 14.5833 16.5094 14.207 17.5646 13.5019C18.6198 12.7968 19.4423 11.7947 19.9279 10.6222C20.4136 9.44972 20.5407 8.15954 20.2931 6.91483C20.0455 5.67012 19.4343 4.52678 18.537 3.6294C17.6396 2.73201 16.4962 2.12089 15.2515 1.8733C14.0068 1.62571 12.7166 1.75278 11.5441 2.23844C10.3716 2.7241 9.36949 3.54654 8.66441 4.60176C7.95934 5.65697 7.58301 6.89757 7.58301 8.16666C7.58486 9.8679 8.2615 11.4989 9.46446 12.7019C10.6674 13.9048 12.2984 14.5815 13.9997 14.5833ZM13.9997 2.91667C15.038 2.91667 16.0531 3.22457 16.9164 3.80145C17.7798 4.37833 18.4527 5.19826 18.8501 6.15758C19.2474 7.11689 19.3514 8.17248 19.1488 9.19088C18.9462 10.2093 18.4462 11.1447 17.712 11.879C16.9778 12.6132 16.0423 13.1132 15.0239 13.3158C14.0055 13.5183 12.9499 13.4144 11.9906 13.017C11.0313 12.6197 10.2113 11.9468 9.63446 11.0834C9.05758 10.22 8.74968 9.20501 8.74968 8.16666C8.75122 6.77475 9.30484 5.44029 10.2891 4.45606C11.2733 3.47183 12.6078 2.91821 13.9997 2.91667Z" fill="#4F4F4F"/>
</svg>
